# https://github.com/mikedh/trimesh

o geometry_0
v 0.01490693 0.01782809 0.00159441 0.54509804 0.71372549 0.60000000
v 0.01485516 0.01289669 -0.00004428 0.54509804 0.71372549 0.60000000
v 0.01486711 0.01453942 -0.00004428 0.54509804 0.71372549 0.60000000
v 0.01487507 0.01618216 -0.00004428 0.54509804 0.71372549 0.60000000
v 0.01487905 0.01782809 -0.00004428 0.54509804 0.71372549 0.60000000
v 0.01476356 0.01947082 0.00159441 0.54509804 0.71372549 0.60000000
v 0.01476356 0.01947082 0.03282700 0.54509804 0.71372549 0.60000000
v 0.01486312 0.01782809 0.03282700 0.54509804 0.71372549 0.60000000
v 0.01477153 0.01289669 -0.00169921 0.54509804 0.71372549 0.60000000
v 0.01449276 -0.00847167 0.04762395 0.54509804 0.71372549 0.60000000
v 0.01438125 -0.00958706 0.04629352 0.54509804 0.71372549 0.60000000
v 0.01475958 0.01782809 -0.00169921 0.54509804 0.71372549 0.60000000
v 0.01463214 0.01947082 -0.00169921 0.54509804 0.71372549 0.60000000
v 0.01473569 0.01947082 -0.00004428 0.54509804 0.71372549 0.60000000
v 0.01444497 0.02044560 -0.00004428 0.54509804 0.71372549 0.60000000
v 0.01445692 0.02045519 0.00159441 0.54509804 0.71372549 0.60000000
v 0.01445692 0.02045519 0.03282700 0.54509804 0.71372549 0.60000000
v 0.01441709 0.02041684 0.03448192 0.54509804 0.71372549 0.60000000
v 0.01467993 0.01947082 0.03448192 0.54509804 0.71372549 0.60000000
v 0.01477949 0.01782809 0.03448192 0.54509804 0.71372549 0.60000000
v 0.01443302 0.00960802 0.04762395 0.54509804 0.71372549 0.60000000
v 0.01449276 0.00796209 0.04762395 0.54509804 0.71372549 0.60000000
v 0.01452860 0.01168541 -0.00169921 0.54509804 0.71372549 0.60000000
v 0.01439718 0.01189954 -0.00333791 0.54509804 0.71372549 0.60000000
v 0.01430160 0.01205934 -0.00418159 0.54509804 0.71372549 0.60000000
v 0.01430558 0.01863028 -0.00418159 0.54509804 0.71372549 0.60000000
v 0.01430558 0.01872936 -0.00418159 0.54509804 0.71372549 0.60000000
v 0.01435736 -0.00847167 0.04892193 0.54509804 0.71372549 0.60000000
v 0.01433744 -0.00945283 0.04875968 0.54509804 0.71372549 0.60000000
v 0.01439320 -0.00963181 0.04762395 0.54509804 0.71372549 0.60000000
v 0.01347326 -0.01043400 0.04762395 0.54509804 0.71372549 0.60000000
v 0.01363256 -0.01011121 0.04583923 0.54509804 0.71372549 0.60000000
v 0.01325024 -0.01006007 0.04434655 0.54509804 0.71372549 0.60000000
v 0.01440514 0.01935257 -0.00330546 0.54509804 0.71372549 0.60000000
v 0.01433744 0.02033694 -0.00273759 0.54509804 0.71372549 0.60000000
v 0.01439320 0.02039766 -0.00169921 0.54509804 0.71372549 0.60000000
v 0.01182852 0.02137563 -0.00333791 0.54509804 0.71372549 0.60000000
v 0.01182852 0.02143955 -0.00169921 0.54509804 0.71372549 0.60000000
v 0.01182852 0.02146512 -0.00004428 0.54509804 0.71372549 0.60000000
v 0.01347326 0.02075881 0.03282700 0.54509804 0.71372549 0.60000000
v 0.01347326 0.02072045 0.03448192 0.54509804 0.71372549 0.60000000
v 0.01308298 0.02057344 0.03941424 0.54509804 0.71372549 0.60000000
v 0.01434939 0.02034972 0.03563388 0.54509804 0.71372549 0.60000000
v 0.01264890 0.01042939 0.05995474 0.54509804 0.71372549 0.60000000
v 0.01429762 0.01043578 0.04848386 0.54509804 0.71372549 0.60000000
v 0.01432948 0.00960802 0.04871100 0.54509804 0.71372549 0.60000000
v 0.01435736 0.00796209 0.04892193 0.54509804 0.71372549 0.60000000
v 0.01295555 0.01166303 -0.00663153 0.54509804 0.71372549 0.60000000
v 0.01272855 0.01195067 -0.00757256 0.54509804 0.71372549 0.60000000
v 0.01277235 0.01289669 -0.00765368 0.54509804 0.71372549 0.60000000
v 0.01391531 0.01935257 -0.00483058 0.54509804 0.71372549 0.60000000
v 0.01417815 0.01982558 -0.00382465 0.54509804 0.71372549 0.60000000
v 0.01276837 0.01782809 -0.00763746 0.54509804 0.71372549 0.60000000
v 0.01273651 0.01915762 -0.00758878 0.54509804 0.71372549 0.60000000
v 0.01305112 0.01961145 -0.00677755 0.54509804 0.71372549 0.60000000
v 0.01424585 -0.00847167 0.04974939 0.54509804 0.71372549 0.60000000
v 0.01342149 -0.00847167 0.05584988 0.54509804 0.71372549 0.60000000
v 0.01268872 -0.00943366 0.06016566 0.54509804 0.71372549 0.60000000
v 0.01278032 -0.00969253 0.05912728 0.54509804 0.71372549 0.60000000
v 0.01291572 -0.00995780 0.05748858 0.54509804 0.71372549 0.60000000
v 0.01303519 -0.01006007 0.05584988 0.54509804 0.71372549 0.60000000
v 0.01182852 -0.01090061 0.05091757 0.54509804 0.71372549 0.60000000
v 0.01182852 -0.01090061 0.04598525 0.54509804 0.71372549 0.60000000
v 0.01182852 -0.01086546 0.04434655 0.54509804 0.71372549 0.60000000
v 0.01182852 -0.01076319 0.05748858 0.54509804 0.71372549 0.60000000
v 0.01182852 -0.01086546 0.05584988 0.54509804 0.71372549 0.60000000
v 0.01182852 -0.01089103 0.05419496 0.54509804 0.71372549 0.60000000
v 0.01182852 -0.01089742 0.05255626 0.54509804 0.71372549 0.60000000
v 0.01291174 -0.00978202 0.04322705 0.54509804 0.71372549 0.60000000
v 0.01182056 0.01150963 -0.00817287 0.54509804 0.71372549 0.60000000
v 0.01263695 0.02025384 -0.00742653 0.54509804 0.71372549 0.60000000
v 0.01289581 0.02047756 -0.00633948 0.54509804 0.71372549 0.60000000
v 0.01315865 0.02058942 -0.00497660 0.54509804 0.71372549 0.60000000
v 0.01182852 0.02119666 -0.00497660 0.54509804 0.71372549 0.60000000
v 0.01018379 0.02169203 -0.00497660 0.54509804 0.71372549 0.60000000
v 0.01018379 0.02173039 -0.00333791 0.54509804 0.71372549 0.60000000
v 0.01018379 0.02172719 0.00323311 0.54509804 0.71372549 0.60000000
v 0.01182852 0.02089943 0.03775932 0.54509804 0.71372549 0.60000000
v 0.01018379 0.02170162 0.00488803 0.54509804 0.71372549 0.60000000
v 0.01182852 0.02074602 0.03941424 0.54509804 0.71372549 0.60000000
v -0.02269105 0.01083847 0.14953143 0.54509804 0.71372549 0.60000000
v 0.01288386 0.02046478 0.04043640 0.54509804 0.71372549 0.60000000
v 0.01105593 0.01048052 0.06839159 0.54509804 0.71372549 0.60000000
v 0.00615358 0.01050928 0.08816953 0.54509804 0.71372549 0.60000000
v 0.00936341 0.01043258 0.07639038 0.54509804 0.71372549 0.60000000
v 0.01136258 0.00960802 0.06735321 0.54509804 0.71372549 0.60000000
v 0.01268076 0.00960802 0.06011698 0.54509804 0.71372549 0.60000000
v 0.01284404 0.00960802 0.05912728 0.54509804 0.71372549 0.60000000
v 0.01309891 0.00960802 0.05748858 0.54509804 0.71372549 0.60000000
v 0.01424585 0.00796209 0.04974939 0.54509804 0.71372549 0.60000000
v 0.01342149 0.00796209 0.05584988 0.54509804 0.71372549 0.60000000
v 0.01126700 0.01174933 -0.00940595 0.54509804 0.71372549 0.60000000
v 0.01139444 0.01289669 -0.00955197 0.54509804 0.71372549 0.60000000
v 0.01221880 0.01289669 -0.00846492 0.54509804 0.71372549 0.60000000
v 0.01221880 0.01782809 -0.00846492 0.54509804 0.71372549 0.60000000
v 0.01130683 0.01947082 -0.00945462 0.54509804 0.71372549 0.60000000
v 0.01222278 0.01961145 -0.00818910 0.54509804 0.71372549 0.60000000
v 0.01318254 -0.00847167 0.05748858 0.54509804 0.71372549 0.60000000
v 0.01291174 -0.00847167 0.05912728 0.54509804 0.71372549 0.60000000
v 0.01270864 -0.00847167 0.06027923 0.54509804 0.71372549 0.60000000
v 0.01174887 -0.00847167 0.06571451 0.54509804 0.71372549 0.60000000
v 0.01144223 -0.00847167 0.06735321 0.54509804 0.71372549 0.60000000
v 0.01109576 -0.00958706 0.06857006 0.54509804 0.71372549 0.60000000
v 0.01122320 -0.00987151 0.06735321 0.54509804 0.71372549 0.60000000
v 0.01137851 -0.01004729 0.06571451 0.54509804 0.71372549 0.60000000
v 0.01018379 -0.01090061 0.06078220 0.54509804 0.71372549 0.60000000
v 0.01018379 -0.01090381 0.05912728 0.54509804 0.71372549 0.60000000
v 0.01018379 -0.01090381 0.05255626 0.54509804 0.71372549 0.60000000
v 0.00031934 -0.01090381 0.04269163 0.54509804 0.71372549 0.60000000
v -0.00132141 -0.01090381 0.04105293 0.54509804 0.71372549 0.60000000
v -0.01118187 -0.01090381 0.03282700 0.54509804 0.71372549 0.60000000
v 0.00525356 -0.01090061 0.04105293 0.54509804 0.71372549 0.60000000
v 0.01018379 -0.01075999 0.04269163 0.54509804 0.71372549 0.60000000
v 0.00853905 0.01070744 -0.00990892 0.54509804 0.71372549 0.60000000
v 0.01021166 0.01137859 -0.00992514 0.54509804 0.71372549 0.60000000
v 0.00360882 -0.01088144 0.03941424 0.54509804 0.71372549 0.60000000
v 0.00689829 -0.01085267 0.04105293 0.54509804 0.71372549 0.60000000
v 0.01018379 -0.01067370 0.06735321 0.54509804 0.71372549 0.60000000
v 0.01018379 -0.01084948 0.06571451 0.54509804 0.71372549 0.60000000
v 0.01018379 -0.01089103 0.06405959 0.54509804 0.71372549 0.60000000
v 0.01018379 -0.01089742 0.06242089 0.54509804 0.71372549 0.60000000
v 0.01114753 0.02040086 -0.00925993 0.54509804 0.71372549 0.60000000
v 0.01151391 0.02053189 -0.00827022 0.54509804 0.71372549 0.60000000
v 0.01198384 0.02072365 -0.00677755 0.54509804 0.71372549 0.60000000
v 0.01018379 0.02142677 -0.00663153 0.54509804 0.71372549 0.60000000
v 0.00853905 0.02152584 -0.00827022 0.54509804 0.71372549 0.60000000
v 0.00525356 0.02172399 -0.00990892 0.54509804 0.71372549 0.60000000
v -0.00461089 0.02174637 -0.00990892 0.54509804 0.71372549 0.60000000
v 0.00525356 0.02173358 0.00982034 0.54509804 0.71372549 0.60000000
v -0.00789638 0.02089943 0.03118830 0.54509804 0.71372549 0.60000000
v 0.01018379 0.02087706 0.03775932 0.54509804 0.71372549 0.60000000
v -0.00461089 0.02173678 0.00982034 0.54509804 0.71372549 0.60000000
v -0.02433579 0.01084486 0.14789273 0.54509804 0.71372549 0.60000000
v -0.02443933 0.01068826 0.14962878 0.54509804 0.71372549 0.60000000
v -0.02396542 0.01058599 0.15055358 0.54509804 0.71372549 0.60000000
v -0.02269105 0.01060197 0.15056980 0.54509804 0.71372549 0.60000000
v -0.02178306 0.01050289 0.15044001 0.54509804 0.71372549 0.60000000
v -0.02153217 0.01060197 0.14953143 0.54509804 0.71372549 0.60000000
v -0.01282661 0.02089623 0.02954961 0.54509804 0.71372549 0.60000000
v -0.02003080 0.01057320 0.14742221 0.54509804 0.71372549 0.60000000
v -0.01684088 0.01051568 0.14231143 0.54509804 0.71372549 0.60000000
v -0.01514836 0.01055083 0.13913138 0.54509804 0.71372549 0.60000000
v -0.01346778 0.01057001 0.13591889 0.54509804 0.71372549 0.60000000
v -0.01179915 0.01058279 0.13272261 0.54509804 0.71372549 0.60000000
v -0.01016237 0.01057960 0.12946145 0.54509804 0.71372549 0.60000000
v -0.00852560 0.01057640 0.12615160 0.54509804 0.71372549 0.60000000
v -0.00690476 0.01056681 0.12282553 0.54509804 0.71372549 0.60000000
v -0.00531577 0.01053805 0.11940212 0.54509804 0.71372549 0.60000000
v -0.00372679 0.01049330 0.11597870 0.54509804 0.71372549 0.60000000
v -0.00043333 0.01049650 0.10778522 0.54509804 0.71372549 0.60000000
v 0.00125919 0.01053805 0.10304760 0.54509804 0.71372549 0.60000000
v 0.00292384 0.01055403 0.09819641 0.54509804 0.71372549 0.60000000
v 0.00454867 0.01054124 0.09324787 0.54509804 0.71372549 0.60000000
v 0.01111169 0.00960802 0.06865119 0.54509804 0.71372549 0.60000000
v 0.00434955 0.00998834 0.09435115 0.54509804 0.71372549 0.60000000
v 0.00622925 0.00960802 0.08839667 0.54509804 0.71372549 0.60000000
v 0.00768283 0.01025680 0.08289649 0.54509804 0.71372549 0.60000000
v 0.00774257 0.00916058 0.08305874 0.54509804 0.71372549 0.60000000
v 0.00939527 0.00960802 0.07652018 0.54509804 0.71372549 0.60000000
v 0.01144223 0.00796209 0.06735321 0.54509804 0.71372549 0.60000000
v 0.01174887 0.00796209 0.06571451 0.54509804 0.71372549 0.60000000
v 0.01270864 0.00796209 0.06027923 0.54509804 0.71372549 0.60000000
v 0.01291174 0.00796209 0.05912728 0.54509804 0.71372549 0.60000000
v 0.01318254 0.00796209 0.05748858 0.54509804 0.71372549 0.60000000
v 0.00967802 0.01173335 -0.01101220 0.54509804 0.71372549 0.60000000
v 0.01065769 0.01289669 -0.01037943 0.54509804 0.71372549 0.60000000
v 0.01139444 0.01782809 -0.00955197 0.54509804 0.71372549 0.60000000
v 0.01065769 0.01782809 -0.01037943 0.54509804 0.71372549 0.60000000
v 0.01055813 0.01947082 -0.01026586 0.54509804 0.71372549 0.60000000
v 0.01114355 -0.00847167 0.06878098 0.54509804 0.71372549 0.60000000
v 0.00951474 -0.00972769 0.07556292 0.54509804 0.71372549 0.60000000
v 0.00940323 -0.00944325 0.07655263 0.54509804 0.71372549 0.60000000
v 0.00969395 -0.01000893 0.07390800 0.54509804 0.71372549 0.60000000
v 0.00689829 -0.01090381 0.07556292 0.54509804 0.71372549 0.60000000
v -0.02269105 -0.01090061 0.03118830 0.54509804 0.71372549 0.60000000
v -0.02104631 -0.01089422 0.02954961 0.54509804 0.71372549 0.60000000
v -0.01118187 -0.01089742 0.03118830 0.54509804 0.71372549 0.60000000
v -0.02269105 -0.01090381 0.03612062 0.54509804 0.71372549 0.60000000
v -0.01282661 -0.01081432 0.02954961 0.54509804 0.71372549 0.60000000
v 0.00689829 0.01084806 -0.01156384 0.54509804 0.71372549 0.60000000
v 0.00848728 0.01146169 -0.01156384 0.54509804 0.71372549 0.60000000
v 0.00853905 -0.01081113 0.07390800 0.54509804 0.71372549 0.60000000
v 0.00853905 -0.01088783 0.07226930 0.54509804 0.71372549 0.60000000
v 0.00689829 -0.01089422 0.07884031 0.54509804 0.71372549 0.60000000
v 0.00853905 -0.01089742 0.07063060 0.54509804 0.71372549 0.60000000
v 0.00689829 -0.01090061 0.07720162 0.54509804 0.71372549 0.60000000
v 0.00954660 0.02041044 -0.01089863 0.54509804 0.71372549 0.60000000
v 0.01013201 0.02055746 -0.00984402 0.54509804 0.71372549 0.60000000
v 0.01018379 0.02102727 -0.00827022 0.54509804 0.71372549 0.60000000
v 0.00853905 0.02103686 -0.00990892 0.54509804 0.71372549 0.60000000
v 0.00689829 0.02144914 -0.00990892 0.54509804 0.71372549 0.60000000
v 0.00525356 0.02124460 -0.01156384 0.54509804 0.71372549 0.60000000
v 0.00360882 0.02142677 -0.01156384 0.54509804 0.71372549 0.60000000
v 0.00196408 0.02153223 -0.01156384 0.54509804 0.71372549 0.60000000
v 0.00031934 0.02158976 -0.01156384 0.54509804 0.71372549 0.60000000
v -0.00132141 0.02155461 -0.01156384 0.54509804 0.71372549 0.60000000
v -0.00296615 0.02146192 -0.01156384 0.54509804 0.71372549 0.60000000
v -0.00461089 0.02132450 -0.01156384 0.54509804 0.71372549 0.60000000
v -0.00625164 0.02157059 -0.00990892 0.54509804 0.71372549 0.60000000
v -0.00789638 0.02168245 -0.00827022 0.54509804 0.71372549 0.60000000
v -0.00953713 0.02170482 -0.00497660 0.54509804 0.71372549 0.60000000
v -0.01118187 0.02171121 -0.00004428 0.54509804 0.71372549 0.60000000
v -0.00953713 0.02169843 0.00488803 0.54509804 0.71372549 0.60000000
v -0.00789638 0.02169203 0.00816542 0.54509804 0.71372549 0.60000000
v -0.02527962 0.01054764 0.14914203 0.54509804 0.71372549 0.60000000
v -0.01447135 0.02077159 0.02954961 0.54509804 0.71372549 0.60000000
v -0.01708381 0.02043282 0.02894929 0.54509804 0.71372549 0.60000000
v -0.02426012 0.00960802 0.15073205 0.54509804 0.71372549 0.60000000
v -0.02269105 0.00960802 0.15089430 0.54509804 0.71372549 0.60000000
v -0.02508448 0.00960802 0.15026154 0.54509804 0.71372549 0.60000000
v -0.02169943 0.00960802 0.15052114 0.54509804 0.71372549 0.60000000
v -0.02106224 0.00960802 0.14953143 0.54509804 0.71372549 0.60000000
v -0.01857722 0.01043258 0.14542657 0.54509804 0.71372549 0.60000000
v -0.01118187 0.02167605 0.00159441 0.54509804 0.71372549 0.60000000
v -0.01675327 0.00960802 0.14245745 0.54509804 0.71372549 0.60000000
v -0.01502888 0.00960802 0.13934230 0.54509804 0.71372549 0.60000000
v -0.01209384 0.00991803 0.13382589 0.54509804 0.71372549 0.60000000
v -0.01043318 0.01003948 0.13054850 0.54509804 0.71372549 0.60000000
v -0.00880835 0.00990205 0.12723866 0.54509804 0.71372549 0.60000000
v -0.00715963 0.00960802 0.12394504 0.54509804 0.71372549 0.60000000
v -0.00676936 0.00960802 0.12311758 0.54509804 0.71372549 0.60000000
v -0.00521223 0.00960802 0.11962926 0.54509804 0.71372549 0.60000000
v -0.00365909 0.00960802 0.11614095 0.54509804 0.71372549 0.60000000
v -0.00221347 0.01006824 0.11247416 0.54509804 0.71372549 0.60000000
v -0.00036563 0.00960802 0.10796369 0.54509804 0.71372549 0.60000000
v 0.00135875 0.00960802 0.10332342 0.54509804 0.71372549 0.60000000
v 0.00270083 0.00995958 0.09928346 0.54509804 0.71372549 0.60000000
v 0.00966607 0.00796209 0.07556292 0.54509804 0.71372549 0.60000000
v 0.01096434 0.00796209 0.06960845 0.54509804 0.71372549 0.60000000
v 0.01114355 0.00796209 0.06878098 0.54509804 0.71372549 0.60000000
v 0.00299154 0.00948977 0.09866692 0.54509804 0.71372549 0.60000000
v 0.00443716 0.00889531 0.09448094 0.54509804 0.71372549 0.60000000
v 0.00460840 0.00950894 0.09373461 0.54509804 0.71372549 0.60000000
v 0.00626509 0.00796209 0.08851025 0.54509804 0.71372549 0.60000000
v 0.00669519 0.00796209 0.08706625 0.54509804 0.71372549 0.60000000
v 0.00715317 0.00796209 0.08542755 0.54509804 0.71372549 0.60000000
v 0.00843551 0.00796209 0.08049523 0.54509804 0.71372549 0.60000000
v 0.00886561 0.00796209 0.07884031 0.54509804 0.71372549 0.60000000
v 0.00922004 0.00796209 0.07744499 0.54509804 0.71372549 0.60000000
v 0.00942314 0.00796209 0.07663375 0.54509804 0.71372549 0.60000000
v 0.00790186 0.01188995 -0.01250487 0.54509804 0.71372549 0.60000000
v 0.00983732 0.01289669 -0.01115822 0.54509804 0.71372549 0.60000000
v 0.00983732 0.01782809 -0.01115822 0.54509804 0.71372549 0.60000000
v 0.00973775 0.01947082 -0.01106087 0.54509804 0.71372549 0.60000000
v 0.01096434 -0.00847167 0.06960845 0.54509804 0.71372549 0.60000000
v 0.00786204 -0.00969253 0.08213393 0.54509804 0.71372549 0.60000000
v 0.00807709 -0.01001533 0.08049523 0.54509804 0.71372549 0.60000000
v 0.00942314 -0.00847167 0.07663375 0.54509804 0.71372549 0.60000000
v 0.00922004 -0.00847167 0.07744499 0.54509804 0.71372549 0.60000000
v 0.00886561 -0.00847167 0.07884031 0.54509804 0.71372549 0.60000000
v 0.00774257 -0.00938891 0.08305874 0.54509804 0.71372549 0.60000000
v 0.00966607 -0.00847167 0.07556292 0.54509804 0.71372549 0.60000000
v 0.00853905 -0.01053308 0.07556292 0.54509804 0.71372549 0.60000000
v 0.00525356 -0.01090381 0.08213393 0.54509804 0.71372549 0.60000000
v -0.02433579 -0.01075999 0.03282700 0.54509804 0.71372549 0.60000000
v -0.02269105 -0.01084309 0.02954961 0.54509804 0.71372549 0.60000000
v -0.02433579 -0.01078556 0.03448192 0.54509804 0.71372549 0.60000000
v -0.01940157 -0.01065772 0.02789468 0.54509804 0.71372549 0.60000000
v -0.01775684 -0.01068329 0.02789468 0.54509804 0.71372549 0.60000000
v -0.01611608 -0.01068329 0.02789468 0.54509804 0.71372549 0.60000000
v -0.02269105 -0.01090381 0.11829884 0.54509804 0.71372549 0.60000000
v 0.00360882 0.01100786 -0.01320254 0.54509804 0.71372549 0.60000000
v 0.00519382 0.01143292 -0.01328366 0.54509804 0.71372549 0.60000000
v 0.00689829 0.01158953 -0.01278069 0.54509804 0.71372549 0.60000000
v 0.00689829 -0.01082072 0.08049523 0.54509804 0.71372549 0.60000000
v 0.00525356 -0.01089103 0.08542755 0.54509804 0.71372549 0.60000000
v 0.00525356 -0.01090061 0.08377263 0.54509804 0.71372549 0.60000000
v 0.00776248 0.02032096 -0.01240752 0.54509804 0.71372549 0.60000000
v 0.00840365 0.02050632 -0.01148271 0.54509804 0.71372549 0.60000000
v 0.00689829 0.02088345 -0.01156384 0.54509804 0.71372549 0.60000000
v 0.00689829 0.02046478 -0.01261845 0.54509804 0.71372549 0.60000000
v 0.00525356 0.02060220 -0.01299161 0.54509804 0.71372549 0.60000000
v 0.00327430 0.02039766 -0.01412735 0.54509804 0.71372549 0.60000000
v 0.00196408 0.02093139 -0.01320254 0.54509804 0.71372549 0.60000000
v 0.00031934 0.02103366 -0.01320254 0.54509804 0.71372549 0.60000000
v -0.00132141 0.02097294 -0.01320254 0.54509804 0.71372549 0.60000000
v -0.00296615 0.02042323 -0.01415980 0.54509804 0.71372549 0.60000000
v -0.00393786 0.02033694 -0.01406244 0.54509804 0.71372549 0.60000000
v -0.00625164 0.02053828 -0.01276447 0.54509804 0.71372549 0.60000000
v -0.00625164 0.02103046 -0.01156384 0.54509804 0.71372549 0.60000000
v -0.00789638 0.02121264 -0.00990892 0.54509804 0.71372549 0.60000000
v -0.00953713 0.02122862 -0.00827022 0.54509804 0.71372549 0.60000000
v -0.00953713 0.02161533 -0.00663153 0.54509804 0.71372549 0.60000000
v -0.01118187 0.02167286 -0.00169921 0.54509804 0.71372549 0.60000000
v -0.01282661 0.02122862 -0.00004428 0.54509804 0.71372549 0.60000000
v -0.01708381 0.02043282 0.02847877 0.54509804 0.71372549 0.60000000
v -0.02538316 0.00960802 0.14943408 0.54509804 0.71372549 0.60000000
v -0.02533936 0.01060836 0.14789273 0.54509804 0.71372549 0.60000000
v -0.02561016 0.00960802 0.14789273 0.54509804 0.71372549 0.60000000
v -0.02546281 0.01254832 0.03282700 0.54509804 0.71372549 0.60000000
v -0.02430791 0.00796209 0.15079696 0.54509804 0.71372549 0.60000000
v -0.02269105 0.00796209 0.15100788 0.54509804 0.71372549 0.60000000
v -0.02513227 0.00796209 0.15022909 0.54509804 0.71372549 0.60000000
v -0.02513227 -0.00847167 0.15029399 0.54509804 0.71372549 0.60000000
v -0.02165960 0.00796209 0.15055358 0.54509804 0.71372549 0.60000000
v -0.02092684 0.00796209 0.14953143 0.54509804 0.71372549 0.60000000
v -0.01987947 0.00960802 0.14766558 0.54509804 0.71372549 0.60000000
v -0.01854536 0.00960802 0.14549147 0.54509804 0.71372549 0.60000000
v -0.01671345 0.00796209 0.14252235 0.54509804 0.71372549 0.60000000
v -0.01602449 0.00796209 0.14132171 0.54509804 0.71372549 0.60000000
v -0.01200225 0.00882180 0.13392324 0.54509804 0.71372549 0.60000000
v -0.01170755 0.00946420 0.13320935 0.54509804 0.71372549 0.60000000
v -0.01034955 0.00894325 0.13064585 0.54509804 0.71372549 0.60000000
v -0.01006679 0.00953771 0.12993196 0.54509804 0.71372549 0.60000000
v -0.00843799 0.00945461 0.12662212 0.54509804 0.71372549 0.60000000
v -0.00708397 0.00796209 0.12402616 0.54509804 0.71372549 0.60000000
v -0.00871676 0.00880583 0.12735223 0.54509804 0.71372549 0.60000000
v -0.00599677 0.00796209 0.12159246 0.54509804 0.71372549 0.60000000
v -0.00362325 0.00796209 0.11620585 0.54509804 0.71372549 0.60000000
v -0.00310553 0.00796209 0.11500522 0.54509804 0.71372549 0.60000000
v -0.00213382 0.00897202 0.11257151 0.54509804 0.71372549 0.60000000
v -0.00553082 0.00796209 0.12053785 0.54509804 0.71372549 0.60000000
v -0.00398565 0.00796209 0.11703331 0.54509804 0.71372549 0.60000000
v -0.00190284 0.00955688 0.11184140 0.54509804 0.71372549 0.60000000
v 0.00016403 0.00796209 0.10679551 0.54509804 0.71372549 0.60000000
v 0.00078927 0.00796209 0.10514059 0.54509804 0.71372549 0.60000000
v 0.00279242 0.00886335 0.09941326 0.54509804 0.71372549 0.60000000
v 0.00111184 0.00796209 0.10424823 0.54509804 0.71372549 0.60000000
v 0.00366059 0.00796209 0.09693088 0.54509804 0.71372549 0.60000000
v 0.00419025 0.00796209 0.09532463 0.54509804 0.71372549 0.60000000
v 0.00626509 -0.00847167 0.08851025 0.54509804 0.71372549 0.60000000
v 0.00669519 -0.00847167 0.08706625 0.54509804 0.71372549 0.60000000
v 0.00715317 -0.00847167 0.08542755 0.54509804 0.71372549 0.60000000
v 0.00843551 -0.00847167 0.08049523 0.54509804 0.71372549 0.60000000
v 0.00460840 0.01196346 -0.01407867 0.54509804 0.71372549 0.60000000
v 0.00689829 0.01289669 -0.01317009 0.54509804 0.71372549 0.60000000
v 0.00799346 0.01289669 -0.01255355 0.54509804 0.71372549 0.60000000
v 0.00881782 0.01289669 -0.01196946 0.54509804 0.71372549 0.60000000
v 0.00881782 0.01782809 -0.01196946 0.54509804 0.71372549 0.60000000
v 0.00871029 0.01947082 -0.01188834 0.54509804 0.71372549 0.60000000
v 0.00620137 -0.00965738 0.08829933 0.54509804 0.71372549 0.60000000
v 0.00638456 -0.00996099 0.08706625 0.54509804 0.71372549 0.60000000
v 0.00525356 -0.01076319 0.08706625 0.54509804 0.71372549 0.60000000
v 0.00196408 -0.01089742 0.09529218 0.54509804 0.71372549 0.60000000
v -0.00132141 -0.01090381 0.10186319 0.54509804 0.71372549 0.60000000
v -0.02540706 -0.00995780 0.03282700 0.54509804 0.71372549 0.60000000
v -0.02433579 -0.01047555 0.03118830 0.54509804 0.71372549 0.60000000
v -0.02542299 -0.00998017 0.03448192 0.54509804 0.71372549 0.60000000
v -0.02430791 -0.00993543 0.02967940 0.54509804 0.71372549 0.60000000
v -0.02374241 -0.00975326 0.02849500 0.54509804 0.71372549 0.60000000
v -0.02269105 -0.01004089 0.02813806 0.54509804 0.71372549 0.60000000
v -0.02433579 -0.01078556 0.14789273 0.54509804 0.71372549 0.60000000
v -0.02119764 -0.01015275 0.02773244 0.54509804 0.71372549 0.60000000
v -0.00625164 0.01145210 -0.01294294 0.54509804 0.71372549 0.60000000
v -0.00296615 0.01090239 -0.01320254 0.54509804 0.71372549 0.60000000
v -0.00132141 0.01075857 -0.01320254 0.54509804 0.71372549 0.60000000
v 0.00031934 0.01072342 -0.01320254 0.54509804 0.71372549 0.60000000
v 0.00196408 0.01078734 -0.01320254 0.54509804 0.71372549 0.60000000
v -0.00625164 -0.01090381 0.11500522 0.54509804 0.71372549 0.60000000
v -0.02269105 -0.01089742 0.14789273 0.54509804 0.71372549 0.60000000
v 0.00196408 0.01152561 -0.01438693 0.54509804 0.71372549 0.60000000
v 0.00360882 0.01174933 -0.01422469 0.54509804 0.71372549 0.60000000
v 0.00360882 -0.01082391 0.09199856 0.54509804 0.71372549 0.60000000
v 0.00196408 -0.01084628 0.09693088 0.54509804 0.71372549 0.60000000
v 0.00788991 0.01947082 -0.01248865 0.54509804 0.71372549 0.60000000
v 0.00689829 0.01947082 -0.01300784 0.54509804 0.71372549 0.60000000
v 0.00519382 0.01958588 -0.01377040 0.54509804 0.71372549 0.60000000
v 0.00436946 0.02020910 -0.01399755 0.54509804 0.71372549 0.60000000
v 0.00196408 0.01947082 -0.01461409 0.54509804 0.71372549 0.60000000
v 0.00196408 0.02049354 -0.01424091 0.54509804 0.71372549 0.60000000
v 0.00031934 0.02053509 -0.01430582 0.54509804 0.71372549 0.60000000
v -0.00132141 0.02051272 -0.01425714 0.54509804 0.71372549 0.60000000
v -0.00132141 0.01947082 -0.01466277 0.54509804 0.71372549 0.60000000
v -0.00296615 0.01947082 -0.01443561 0.54509804 0.71372549 0.60000000
v -0.00421264 0.01947082 -0.01414357 0.54509804 0.71372549 0.60000000
v -0.00503302 0.01947082 -0.01385152 0.54509804 0.71372549 0.60000000
v -0.00625164 0.01947082 -0.01331611 0.54509804 0.71372549 0.60000000
v -0.00731096 0.02041044 -0.01252110 0.54509804 0.71372549 0.60000000
v -0.00787248 0.02062138 -0.01158006 0.54509804 0.71372549 0.60000000
v -0.00911898 0.02049034 -0.01106087 0.54509804 0.71372549 0.60000000
v -0.00961678 0.02069808 -0.00999004 0.54509804 0.71372549 0.60000000
v -0.01071195 0.02049354 -0.00948708 0.54509804 0.71372549 0.60000000
v -0.01122966 0.02064375 -0.00827022 0.54509804 0.71372549 0.60000000
v -0.01118187 0.02108480 -0.00663153 0.54509804 0.71372549 0.60000000
v -0.01118187 0.02138842 -0.00497660 0.54509804 0.71372549 0.60000000
v -0.01118187 0.02155141 -0.00333791 0.54509804 0.71372549 0.60000000
v -0.01282661 0.02117109 -0.00169921 0.54509804 0.71372549 0.60000000
v -0.02543892 0.01251956 0.03118830 0.54509804 0.71372549 0.60000000
v -0.01403328 0.02058942 -0.00169921 0.54509804 0.71372549 0.60000000
v -0.02538714 -0.00847167 0.14948275 0.54509804 0.71372549 0.60000000
v -0.02562211 -0.00847167 0.14789273 0.54509804 0.71372549 0.60000000
v -0.02562609 -0.00847167 0.14625403 0.54509804 0.71372549 0.60000000
v -0.02576946 0.01125075 0.03282700 0.54509804 0.71372549 0.60000000
v -0.02430791 -0.00847167 0.15079696 0.54509804 0.71372549 0.60000000
v -0.02269105 -0.00847167 0.15100788 0.54509804 0.71372549 0.60000000
v -0.02406100 -0.00982037 0.15065094 0.54509804 0.71372549 0.60000000
v -0.02533537 -0.00975326 0.14925561 0.54509804 0.71372549 0.60000000
v -0.02165960 -0.00847167 0.15055358 0.54509804 0.71372549 0.60000000
v -0.02092684 -0.00847167 0.14953143 0.54509804 0.71372549 0.60000000
v -0.02031355 0.00796209 0.14855794 0.54509804 0.71372549 0.60000000
v -0.01982371 0.00796209 0.14774671 0.54509804 0.71372549 0.60000000
v -0.01899935 0.00796209 0.14636761 0.54509804 0.71372549 0.60000000
v -0.01671345 -0.00847167 0.14252235 0.54509804 0.71372549 0.60000000
v -0.01602449 -0.00847167 0.14132171 0.54509804 0.71372549 0.60000000
v -0.01542712 0.00796209 0.14023466 0.54509804 0.71372549 0.60000000
v -0.01244828 0.00796209 0.13475070 0.54509804 0.71372549 0.60000000
v -0.01200225 -0.00930262 0.13392324 0.54509804 0.71372549 0.60000000
v -0.01156418 0.00796209 0.13309578 0.54509804 0.71372549 0.60000000
v -0.01074779 0.00796209 0.13148954 0.54509804 0.71372549 0.60000000
v -0.01498508 0.00796209 0.13942342 0.54509804 0.71372549 0.60000000
v -0.01371469 0.00796209 0.13708707 0.54509804 0.71372549 0.60000000
v -0.00708397 -0.00847167 0.12402616 0.54509804 0.71372549 0.60000000
v -0.00599677 -0.00847167 0.12159246 0.54509804 0.71372549 0.60000000
v -0.00362325 -0.00847167 0.11620585 0.54509804 0.71372549 0.60000000
v -0.00310553 -0.00847167 0.11500522 0.54509804 0.71372549 0.60000000
v -0.00244843 0.00796209 0.11341520 0.54509804 0.71372549 0.60000000
v -0.00553082 -0.00847167 0.12053785 0.54509804 0.71372549 0.60000000
v -0.00398565 -0.00847167 0.11703331 0.54509804 0.71372549 0.60000000
v 0.00016403 -0.00847167 0.10679551 0.54509804 0.71372549 0.60000000
v 0.00078927 -0.00847167 0.10514059 0.54509804 0.71372549 0.60000000
v 0.00194417 0.00796209 0.10186319 0.54509804 0.71372549 0.60000000
v 0.00111184 -0.00847167 0.10424823 0.54509804 0.71372549 0.60000000
v 0.00366059 -0.00847167 0.09693088 0.54509804 0.71372549 0.60000000
v 0.00419025 -0.00847167 0.09532463 0.54509804 0.71372549 0.60000000
v 0.00443716 -0.00932180 0.09448094 0.54509804 0.71372549 0.60000000
v 0.00360882 0.01289669 -0.01443561 0.54509804 0.71372549 0.60000000
v 0.00469602 0.01289669 -0.01411112 0.54509804 0.71372549 0.60000000
v 0.00551639 0.01289669 -0.01380285 0.54509804 0.71372549 0.60000000
v 0.00689829 0.01782809 -0.01317009 0.54509804 0.71372549 0.60000000
v 0.00799346 0.01782809 -0.01255355 0.54509804 0.71372549 0.60000000
v 0.00456460 -0.00964459 0.09363726 0.54509804 0.71372549 0.60000000
v 0.00481549 -0.01002172 0.09199856 0.54509804 0.71372549 0.60000000
v 0.00031934 -0.01089742 0.10022450 0.54509804 0.71372549 0.60000000
v -0.00296615 -0.01090381 0.10679551 0.54509804 0.71372549 0.60000000
v -0.02565795 -0.00847167 0.03282700 0.54509804 0.71372549 0.60000000
v -0.02529157 -0.00967016 0.03118830 0.54509804 0.71372549 0.60000000
v -0.02568981 -0.00847167 0.03448192 0.54509804 0.71372549 0.60000000
v -0.02542299 -0.00998017 0.14789273 0.54509804 0.71372549 0.60000000
v -0.02517608 -0.00936974 0.03032839 0.54509804 0.71372549 0.60000000
v -0.01229296 0.01169819 -0.00788083 0.54509804 0.71372549 0.60000000
v -0.01083142 0.01160870 -0.00961687 0.54509804 0.71372549 0.60000000
v -0.00924243 0.01161510 -0.01117445 0.54509804 0.71372549 0.60000000
v -0.00746628 0.01173015 -0.01261845 0.54509804 0.71372549 0.60000000
v -0.02269105 -0.01075360 0.14953143 0.54509804 0.71372549 0.60000000
v -0.02449907 -0.01020709 0.14969367 0.54509804 0.71372549 0.60000000
v -0.00420468 0.01186119 -0.01414357 0.54509804 0.71372549 0.60000000
v -0.00296615 0.01164386 -0.01428959 0.54509804 0.71372549 0.60000000
v -0.00469452 0.01135622 -0.01333234 0.54509804 0.71372549 0.60000000
v -0.00132141 0.01149684 -0.01441939 0.54509804 0.71372549 0.60000000
v 0.00031934 0.01145849 -0.01445184 0.54509804 0.71372549 0.60000000
v -0.00789638 -0.01090061 0.11993754 0.54509804 0.71372549 0.60000000
v -0.00953713 -0.01090061 0.12323115 0.54509804 0.71372549 0.60000000
v -0.01282661 -0.01090061 0.12980217 0.54509804 0.71372549 0.60000000
v -0.00296615 -0.01090061 0.10843421 0.54509804 0.71372549 0.60000000
v -0.01611608 -0.01089742 0.13638940 0.54509804 0.71372549 0.60000000
v -0.01282661 -0.01088783 0.13145709 0.54509804 0.71372549 0.60000000
v -0.01447135 -0.01087185 0.13473448 0.54509804 0.71372549 0.60000000
v -0.02104631 -0.01084309 0.14625403 0.54509804 0.71372549 0.60000000
v 0.00322252 -0.01004089 0.09693088 0.54509804 0.71372549 0.60000000
v 0.00031934 -0.01082072 0.10186319 0.54509804 0.71372549 0.60000000
v -0.00132141 -0.01089422 0.10514059 0.54509804 0.71372549 0.60000000
v 0.00551639 0.01782809 -0.01380285 0.54509804 0.71372549 0.60000000
v 0.00460840 0.01911287 -0.01407867 0.54509804 0.71372549 0.60000000
v 0.00373626 0.01958588 -0.01425714 0.54509804 0.71372549 0.60000000
v 0.00360882 0.01782809 -0.01443561 0.54509804 0.71372549 0.60000000
v 0.00031934 0.01947082 -0.01474388 0.54509804 0.71372549 0.60000000
v -0.00296615 0.01289669 -0.01453295 0.54509804 0.71372549 0.60000000
v -0.00296615 0.01782809 -0.01450052 0.54509804 0.71372549 0.60000000
v -0.00441177 0.01782809 -0.01420846 0.54509804 0.71372549 0.60000000
v -0.00523214 0.01782809 -0.01394887 0.54509804 0.71372549 0.60000000
v -0.00625164 0.01782809 -0.01349458 0.54509804 0.71372549 0.60000000
v -0.00754593 0.01947082 -0.01266712 0.54509804 0.71372549 0.60000000
v -0.00836630 0.01947082 -0.01213171 0.54509804 0.71372549 0.60000000
v -0.00941368 0.01947082 -0.01130424 0.54509804 0.71372549 0.60000000
v -0.01023406 0.01947082 -0.01060658 0.54509804 0.71372549 0.60000000
v -0.01097479 0.01947082 -0.00979534 0.54509804 0.71372549 0.60000000
v -0.01179516 0.01947082 -0.00882186 0.54509804 0.71372549 0.60000000
v -0.01218146 0.02043282 -0.00773481 0.54509804 0.71372549 0.60000000
v -0.01376646 0.02040725 -0.00452231 0.54509804 0.71372549 0.60000000
v -0.01246819 0.02055426 -0.00663153 0.54509804 0.71372549 0.60000000
v -0.01282661 0.02097613 -0.00333791 0.54509804 0.71372549 0.60000000
v -0.01391381 0.02051911 -0.00333791 0.54509804 0.71372549 0.60000000
v -0.02572167 0.01125075 0.03118830 0.54509804 0.71372549 0.60000000
v -0.02532741 0.01235017 0.02998767 0.54509804 0.71372549 0.60000000
v -0.02568981 -0.00847167 0.08706625 0.54509804 0.71372549 0.60000000
v -0.02269105 -0.00995141 0.15068339 0.54509804 0.71372549 0.60000000
v -0.02172730 -0.00964459 0.15048869 0.54509804 0.71372549 0.60000000
v -0.01853341 -0.00944325 0.14550769 0.54509804 0.71372549 0.60000000
v -0.02031355 -0.00847167 0.14855794 0.54509804 0.71372549 0.60000000
v -0.01982371 -0.00847167 0.14774671 0.54509804 0.71372549 0.60000000
v -0.01899935 -0.00847167 0.14636761 0.54509804 0.71372549 0.60000000
v -0.01678513 -0.00967655 0.14239255 0.54509804 0.71372549 0.60000000
v -0.01542712 -0.00847167 0.14023466 0.54509804 0.71372549 0.60000000
v -0.01244828 -0.00847167 0.13475070 0.54509804 0.71372549 0.60000000
v -0.01339609 -0.00979480 0.13603246 0.54509804 0.71372549 0.60000000
v -0.01178720 -0.00968934 0.13309578 0.54509804 0.71372549 0.60000000
v -0.01034955 -0.00933458 0.13064585 0.54509804 0.71372549 0.60000000
v -0.01074779 -0.00847167 0.13148954 0.54509804 0.71372549 0.60000000
v -0.01156418 -0.00847167 0.13309578 0.54509804 0.71372549 0.60000000
v -0.01371469 -0.00847167 0.13708707 0.54509804 0.71372549 0.60000000
v -0.01498508 -0.00847167 0.13942342 0.54509804 0.71372549 0.60000000
v -0.01508464 -0.00975645 0.13922873 0.54509804 0.71372549 0.60000000
v -0.00871676 -0.00929943 0.12735223 0.54509804 0.71372549 0.60000000
v -0.00367900 -0.00961903 0.11609227 0.54509804 0.71372549 0.60000000
v -0.00213382 -0.00934097 0.11257151 0.54509804 0.71372549 0.60000000
v -0.00244843 -0.00847167 0.11341520 0.54509804 0.71372549 0.60000000
v -0.00038953 -0.00962542 0.10789879 0.54509804 0.71372549 0.60000000
v 0.00279242 -0.00931221 0.09941326 0.54509804 0.71372549 0.60000000
v 0.00194417 -0.00847167 0.10186319 0.54509804 0.71372549 0.60000000
v 0.00293579 -0.00965738 0.09856958 0.54509804 0.71372549 0.60000000
v 0.00469602 0.01782809 -0.01411112 0.54509804 0.71372549 0.60000000
v -0.00461089 -0.01089742 0.11336652 0.54509804 0.71372549 0.60000000
v -0.02542299 -0.00847167 0.03118830 0.54509804 0.71372549 0.60000000
v -0.02541502 0.01125075 0.02979298 0.54509804 0.71372549 0.60000000
v -0.01366690 0.01203697 -0.00583651 0.54509804 0.71372549 0.60000000
v -0.01243633 0.01289669 -0.00810797 0.54509804 0.71372549 0.60000000
v -0.01188676 0.01289669 -0.00893543 0.54509804 0.71372549 0.60000000
v -0.01106638 0.01289669 -0.00987647 0.54509804 0.71372549 0.60000000
v -0.01032963 0.01289669 -0.01070393 0.54509804 0.71372549 0.60000000
v -0.00950926 0.01289669 -0.01140159 0.54509804 0.71372549 0.60000000
v -0.00848578 0.01289669 -0.01221283 0.54509804 0.71372549 0.60000000
v -0.00766142 0.01289669 -0.01274824 0.54509804 0.71372549 0.60000000
v -0.00625164 0.01289669 -0.01349458 0.54509804 0.71372549 0.60000000
v -0.02139677 -0.00995780 0.14953143 0.54509804 0.71372549 0.60000000
v -0.01775684 -0.01077917 0.14132171 0.54509804 0.71372549 0.60000000
v -0.01940157 -0.01060339 0.14459911 0.54509804 0.71372549 0.60000000
v -0.00523214 0.01289669 -0.01394887 0.54509804 0.71372549 0.60000000
v -0.00441177 0.01289669 -0.01420846 0.54509804 0.71372549 0.60000000
v -0.00953713 -0.01088144 0.12486985 0.54509804 0.71372549 0.60000000
v -0.01118187 -0.01051390 0.12980217 0.54509804 0.71372549 0.60000000
v -0.01282661 -0.01049153 0.13309578 0.54509804 0.71372549 0.60000000
v -0.01611608 -0.01084309 0.13802810 0.54509804 0.71372549 0.60000000
v 0.00131495 -0.00973088 0.10317739 0.54509804 0.71372549 0.60000000
v 0.00154194 -0.01001852 0.10186319 0.54509804 0.71372549 0.60000000
v -0.00132141 -0.01074401 0.10679551 0.54509804 0.71372549 0.60000000
v -0.00296615 -0.01086546 0.11007290 0.54509804 0.71372549 0.60000000
v -0.00766142 0.01782809 -0.01274824 0.54509804 0.71372549 0.60000000
v -0.00848578 0.01782809 -0.01221283 0.54509804 0.71372549 0.60000000
v -0.00950926 0.01782809 -0.01140159 0.54509804 0.71372549 0.60000000
v -0.01032963 0.01782809 -0.01070393 0.54509804 0.71372549 0.60000000
v -0.01106638 0.01782809 -0.00987647 0.54509804 0.71372549 0.60000000
v -0.01188676 0.01782809 -0.00893543 0.54509804 0.71372549 0.60000000
v -0.01235668 0.01947082 -0.00799440 0.54509804 0.71372549 0.60000000
v -0.01354344 0.01992465 -0.00562559 0.54509804 0.71372549 0.60000000
v -0.01386602 0.01941330 -0.00504150 0.54509804 0.71372549 0.60000000
v -0.01433594 0.01947082 -0.00333791 0.54509804 0.71372549 0.60000000
v -0.01995513 -0.00979800 0.14751956 0.54509804 0.71372549 0.60000000
v -0.01648246 -0.00998017 0.14132171 0.54509804 0.71372549 0.60000000
v -0.01117391 -0.00995141 0.13129484 0.54509804 0.71372549 0.60000000
v -0.01014246 -0.00971171 0.12980217 0.54509804 0.71372549 0.60000000
v -0.01476206 -0.01004089 0.13802810 0.54509804 0.71372549 0.60000000
v -0.00851365 -0.00968294 0.12652477 0.54509804 0.71372549 0.60000000
v -0.00683706 -0.00978841 0.12293911 0.54509804 0.71372549 0.60000000
v -0.00526002 -0.00972769 0.11951569 0.54509804 0.71372549 0.60000000
v -0.00344802 -0.00993543 0.11500522 0.54509804 0.71372549 0.60000000
v -0.00196656 -0.00969892 0.11172783 0.54509804 0.71372549 0.60000000
v -0.00016651 -0.00993862 0.10679551 0.54509804 0.71372549 0.60000000
v -0.00789638 -0.01086865 0.12159246 0.54509804 0.71372549 0.60000000
v -0.01367486 0.01882843 -0.00585274 0.54509804 0.71372549 0.60000000
v -0.01367486 0.01860471 -0.00585274 0.54509804 0.71372549 0.60000000
v -0.01243235 0.01782809 -0.00810797 0.54509804 0.71372549 0.60000000
v -0.01770108 -0.01016234 0.14294419 0.54509804 0.71372549 0.60000000
v -0.00953713 -0.01048514 0.12652477 0.54509804 0.71372549 0.60000000
v -0.00810745 -0.01007925 0.12486985 0.54509804 0.71372549 0.60000000
v -0.00164000 -0.01006327 0.11007290 0.54509804 0.71372549 0.60000000
v -0.00461089 -0.01073762 0.11500522 0.54509804 0.71372549 0.60000000
v -0.00625164 -0.01082072 0.11829884 0.54509804 0.71372549 0.60000000
v -0.01320892 0.01941330 -0.00648550 0.54509804 0.71372549 0.60000000
v -0.00653439 -0.01006646 0.12159246 0.54509804 0.71372549 0.60000000
v -0.00498922 -0.01001852 0.11829884 0.54509804 0.71372549 0.60000000
f 1 2 3
f 1 3 4
f 1 4 5
f 1 5 14
f 1 14 6
f 1 6 7
f 1 7 8
f 1 8 2
f 2 9 3
f 2 8 10
f 2 10 11
f 2 11 9
f 3 9 4
f 4 9 5
f 5 9 12
f 5 12 13
f 5 13 14
f 6 14 15
f 6 15 16
f 6 16 17
f 6 17 7
f 7 17 18
f 7 18 19
f 7 19 20
f 7 20 8
f 8 20 21
f 8 21 22
f 8 22 10
f 9 23 24
f 9 24 25
f 9 25 26
f 9 26 27
f 9 27 12
f 9 11 23
f 10 22 47
f 10 47 28
f 10 28 29
f 10 29 30
f 10 30 11
f 11 30 31
f 11 31 32
f 11 32 33
f 11 33 25
f 11 25 24
f 11 24 23
f 12 27 34
f 12 34 13
f 13 34 35
f 13 35 36
f 13 36 14
f 14 36 15
f 15 36 37
f 15 37 38
f 15 38 39
f 15 39 16
f 16 39 17
f 17 40 41
f 17 41 18
f 17 39 40
f 18 41 42
f 18 42 43
f 18 43 19
f 19 43 44
f 19 44 45
f 19 45 21
f 19 21 20
f 21 45 46
f 21 46 22
f 22 46 47
f 25 48 49
f 25 49 50
f 25 50 26
f 25 33 48
f 26 50 27
f 27 51 52
f 27 52 34
f 27 50 53
f 27 53 54
f 27 54 55
f 27 55 51
f 28 47 90
f 28 90 56
f 28 56 29
f 29 56 57
f 29 57 58
f 29 58 59
f 29 59 60
f 29 60 30
f 30 60 61
f 30 61 31
f 31 62 63
f 31 63 64
f 31 64 32
f 31 61 65
f 31 65 66
f 31 66 67
f 31 67 68
f 31 68 62
f 32 64 33
f 33 64 69
f 33 69 70
f 33 70 48
f 34 52 35
f 35 52 71
f 35 71 72
f 35 72 73
f 35 73 74
f 35 74 37
f 35 37 36
f 37 74 75
f 37 75 38
f 38 75 76
f 38 76 39
f 39 76 77
f 39 77 40
f 40 78 41
f 40 77 79
f 40 79 78
f 41 78 42
f 42 78 80
f 42 80 81
f 42 81 82
f 42 82 43
f 43 83 44
f 43 82 84
f 43 84 85
f 43 85 83
f 44 83 86
f 44 86 87
f 44 87 88
f 44 88 89
f 44 89 45
f 45 89 46
f 46 90 47
f 46 89 91
f 46 91 90
f 48 70 49
f 49 70 92
f 49 92 93
f 49 93 94
f 49 94 50
f 50 94 95
f 50 95 53
f 51 55 71
f 51 71 52
f 53 95 54
f 54 71 55
f 54 95 96
f 54 96 97
f 54 97 71
f 56 90 91
f 56 91 57
f 57 91 164
f 57 164 98
f 57 98 58
f 58 98 99
f 58 99 100
f 58 100 101
f 58 101 102
f 58 102 103
f 58 103 104
f 58 104 59
f 59 104 60
f 60 65 61
f 60 104 105
f 60 105 65
f 62 68 121
f 62 121 106
f 62 106 107
f 62 107 108
f 62 108 63
f 63 108 109
f 63 109 110
f 63 110 111
f 63 111 112
f 63 112 64
f 64 113 114
f 64 114 115
f 64 115 70
f 64 70 69
f 64 112 116
f 64 116 117
f 64 117 113
f 65 105 118
f 65 118 119
f 65 119 66
f 66 119 120
f 66 120 67
f 67 120 121
f 67 121 68
f 70 115 92
f 71 97 96
f 71 96 122
f 71 122 72
f 72 74 73
f 72 122 123
f 72 123 124
f 72 124 74
f 74 124 125
f 74 125 75
f 75 125 126
f 75 126 127
f 75 127 76
f 76 127 128
f 76 128 129
f 76 129 77
f 77 129 79
f 78 130 131
f 78 131 81
f 78 81 80
f 78 79 129
f 78 129 132
f 78 132 130
f 81 133 134
f 81 134 135
f 81 135 136
f 81 136 137
f 81 137 138
f 81 138 82
f 81 131 139
f 81 139 133
f 82 138 140
f 82 140 141
f 82 141 142
f 82 142 143
f 82 143 144
f 82 144 145
f 82 145 146
f 82 146 147
f 82 147 148
f 82 148 149
f 82 149 150
f 82 150 151
f 82 151 152
f 82 152 153
f 82 153 84
f 83 154 86
f 83 85 154
f 84 153 155
f 84 155 156
f 84 156 157
f 84 157 85
f 85 157 158
f 85 158 159
f 85 159 154
f 86 154 160
f 86 160 161
f 86 161 87
f 87 162 163
f 87 163 164
f 87 164 88
f 87 161 162
f 88 164 89
f 89 164 91
f 92 115 165
f 92 165 166
f 92 166 93
f 93 167 95
f 93 95 94
f 93 166 168
f 93 168 167
f 95 167 96
f 96 167 168
f 96 168 169
f 96 169 122
f 98 164 163
f 98 163 99
f 99 163 162
f 99 162 100
f 100 162 161
f 100 161 101
f 101 161 160
f 101 160 102
f 102 160 230
f 102 230 170
f 102 170 103
f 103 171 104
f 103 170 172
f 103 172 171
f 104 171 173
f 104 173 105
f 105 173 118
f 106 121 186
f 106 186 174
f 106 174 107
f 107 174 254
f 107 254 335
f 107 335 424
f 107 424 349
f 107 349 261
f 107 261 178
f 107 178 111
f 107 111 110
f 107 110 109
f 107 109 108
f 111 175 176
f 111 176 177
f 111 177 112
f 111 178 175
f 112 177 116
f 113 117 179
f 113 179 180
f 113 180 114
f 114 180 181
f 114 181 115
f 115 181 165
f 116 177 179
f 116 179 117
f 118 173 182
f 118 182 119
f 119 182 183
f 119 183 120
f 120 183 184
f 120 184 185
f 120 185 121
f 121 185 186
f 122 169 187
f 122 187 188
f 122 188 189
f 122 189 123
f 123 189 124
f 124 189 125
f 125 189 126
f 126 189 190
f 126 190 191
f 126 191 127
f 127 191 192
f 127 192 193
f 127 193 194
f 127 194 195
f 127 195 128
f 128 195 196
f 128 196 197
f 128 197 198
f 128 198 199
f 128 199 200
f 128 200 201
f 128 201 202
f 128 202 132
f 128 132 129
f 130 139 131
f 130 132 139
f 132 202 203
f 132 203 204
f 132 204 139
f 133 205 134
f 133 139 206
f 133 206 207
f 133 207 205
f 134 205 135
f 135 208 209
f 135 209 136
f 135 205 210
f 135 210 208
f 136 209 137
f 137 140 138
f 137 209 211
f 137 211 212
f 137 212 213
f 137 213 140
f 139 204 203
f 139 203 214
f 139 214 206
f 140 213 141
f 141 213 215
f 141 215 216
f 141 216 217
f 141 217 142
f 142 217 143
f 143 217 144
f 144 217 218
f 144 218 145
f 145 218 146
f 146 218 147
f 147 218 219
f 147 219 220
f 147 220 221
f 147 221 148
f 148 221 149
f 149 221 222
f 149 222 223
f 149 223 224
f 149 224 150
f 150 224 225
f 150 225 226
f 150 226 151
f 151 226 227
f 151 227 152
f 152 227 155
f 152 155 153
f 154 228 229
f 154 229 230
f 154 230 160
f 154 159 228
f 155 227 231
f 155 231 232
f 155 232 233
f 155 233 156
f 156 234 235
f 156 235 236
f 156 236 158
f 156 158 157
f 156 233 232
f 156 232 234
f 158 236 237
f 158 237 238
f 158 238 159
f 159 238 239
f 159 239 240
f 159 240 228
f 165 181 241
f 165 241 242
f 165 242 166
f 166 242 243
f 166 243 168
f 168 243 244
f 168 244 169
f 169 244 187
f 170 230 229
f 170 229 245
f 170 245 172
f 171 172 246
f 171 246 247
f 171 247 173
f 172 248 249
f 172 249 250
f 172 250 251
f 172 251 246
f 172 245 252
f 172 252 248
f 173 247 253
f 173 253 182
f 174 186 267
f 174 267 254
f 175 255 256
f 175 256 176
f 175 178 257
f 175 257 255
f 176 256 258
f 176 258 259
f 176 259 260
f 176 260 179
f 176 179 177
f 178 261 342
f 178 342 257
f 179 260 180
f 180 260 262
f 180 262 263
f 180 263 264
f 180 264 181
f 181 264 241
f 182 253 265
f 182 265 183
f 183 265 184
f 184 265 266
f 184 266 267
f 184 267 186
f 184 186 185
f 187 244 268
f 187 268 269
f 187 269 270
f 187 270 190
f 187 190 188
f 188 190 189
f 190 270 191
f 191 270 192
f 192 270 271
f 192 271 272
f 192 272 273
f 192 273 274
f 192 274 193
f 193 274 194
f 194 274 275
f 194 275 195
f 195 275 196
f 196 275 276
f 196 276 197
f 197 276 198
f 198 276 277
f 198 277 278
f 198 278 279
f 198 279 280
f 198 280 199
f 199 281 200
f 199 280 281
f 200 281 282
f 200 282 283
f 200 283 201
f 201 283 284
f 201 284 202
f 202 284 285
f 202 285 286
f 202 286 207
f 202 207 206
f 202 206 214
f 202 214 203
f 205 287 210
f 205 207 288
f 205 288 289
f 205 289 287
f 207 286 290
f 207 290 288
f 208 291 292
f 208 292 209
f 208 210 291
f 209 292 211
f 210 287 293
f 210 293 294
f 210 294 291
f 211 295 296
f 211 296 212
f 211 292 295
f 212 296 297
f 212 297 213
f 213 298 215
f 213 297 298
f 215 298 299
f 215 299 300
f 215 300 216
f 216 301 217
f 216 300 301
f 217 301 302
f 217 302 218
f 218 303 304
f 218 304 305
f 218 305 220
f 218 220 219
f 218 302 303
f 220 306 221
f 220 305 307
f 220 307 306
f 221 306 308
f 221 308 222
f 222 308 223
f 223 309 310
f 223 310 311
f 223 311 224
f 223 308 312
f 223 312 313
f 223 313 309
f 224 311 314
f 224 314 225
f 225 314 311
f 225 311 315
f 225 315 316
f 225 316 226
f 226 317 231
f 226 231 227
f 226 316 318
f 226 318 317
f 228 252 245
f 228 245 229
f 228 240 248
f 228 248 252
f 231 317 232
f 232 317 319
f 232 319 320
f 232 320 234
f 234 321 322
f 234 322 235
f 234 320 414
f 234 414 321
f 235 322 323
f 235 323 236
f 236 323 324
f 236 324 237
f 237 324 250
f 237 250 238
f 238 250 249
f 238 249 239
f 239 249 248
f 239 248 240
f 241 264 325
f 241 325 326
f 241 326 327
f 241 327 328
f 241 328 242
f 242 328 329
f 242 329 243
f 243 329 330
f 243 330 244
f 244 330 268
f 246 251 331
f 246 331 332
f 246 332 247
f 247 332 333
f 247 333 265
f 247 265 253
f 250 324 251
f 251 323 322
f 251 322 331
f 251 324 323
f 254 267 334
f 254 334 335
f 255 336 337
f 255 337 256
f 255 257 338
f 255 338 336
f 256 339 340
f 256 340 341
f 256 341 258
f 256 337 339
f 257 342 428
f 257 428 338
f 258 341 343
f 258 343 344
f 258 344 345
f 258 345 346
f 258 346 347
f 258 347 259
f 259 347 260
f 260 347 348
f 260 348 262
f 261 349 350
f 261 350 342
f 262 348 351
f 262 351 352
f 262 352 263
f 263 352 325
f 263 325 264
f 265 333 266
f 266 333 353
f 266 353 354
f 266 354 334
f 266 334 267
f 268 330 355
f 268 355 356
f 268 356 357
f 268 357 358
f 268 358 271
f 268 271 270
f 268 270 269
f 271 358 273
f 271 273 272
f 273 358 359
f 273 359 360
f 273 360 274
f 274 360 275
f 275 360 361
f 275 361 362
f 275 362 276
f 276 362 277
f 277 362 363
f 277 363 278
f 278 363 364
f 278 364 365
f 278 365 366
f 278 366 367
f 278 367 368
f 278 368 279
f 279 368 280
f 280 368 369
f 280 369 281
f 281 369 370
f 281 370 371
f 281 371 282
f 282 371 372
f 282 372 373
f 282 373 374
f 282 374 283
f 283 374 375
f 283 375 376
f 283 376 284
f 284 376 377
f 284 377 285
f 285 377 286
f 286 378 290
f 286 377 379
f 286 379 378
f 287 380 294
f 287 294 293
f 287 289 381
f 287 381 380
f 288 290 289
f 289 382 381
f 289 290 383
f 289 383 382
f 290 378 383
f 291 294 384
f 291 384 385
f 291 385 292
f 292 385 388
f 292 388 295
f 294 386 384
f 294 380 387
f 294 387 386
f 295 388 389
f 295 389 296
f 296 389 479
f 296 479 390
f 296 390 297
f 297 390 298
f 298 390 391
f 298 391 392
f 298 392 299
f 299 393 394
f 299 394 300
f 299 392 481
f 299 481 393
f 300 394 483
f 300 483 395
f 300 395 301
f 301 396 484
f 301 484 397
f 301 397 489
f 301 489 398
f 301 398 399
f 301 399 303
f 301 303 302
f 301 395 400
f 301 400 401
f 301 401 396
f 303 399 307
f 303 307 304
f 304 307 305
f 306 402 403
f 306 403 308
f 306 307 399
f 306 399 488
f 306 488 493
f 306 493 402
f 308 403 407
f 308 407 312
f 309 404 405
f 309 405 310
f 309 313 408
f 309 408 404
f 310 405 496
f 310 496 406
f 310 406 311
f 311 406 315
f 312 407 408
f 312 408 313
f 315 409 410
f 315 410 316
f 315 406 496
f 315 496 409
f 316 410 412
f 316 412 318
f 317 411 319
f 317 318 411
f 318 412 499
f 318 499 411
f 319 411 499
f 319 499 413
f 319 413 414
f 319 414 320
f 321 414 415
f 321 415 322
f 322 415 331
f 325 352 416
f 325 416 417
f 325 417 418
f 325 418 326
f 326 419 420
f 326 420 327
f 326 418 452
f 326 452 419
f 327 420 329
f 327 329 328
f 329 355 330
f 329 420 355
f 331 415 421
f 331 421 332
f 332 421 422
f 332 422 333
f 333 422 353
f 334 354 423
f 334 423 424
f 334 424 335
f 336 425 426
f 336 426 337
f 336 338 427
f 336 427 425
f 337 426 339
f 338 428 475
f 338 475 427
f 339 426 429
f 339 429 340
f 340 429 430
f 340 430 431
f 340 431 432
f 340 432 433
f 340 433 341
f 341 433 344
f 341 344 343
f 342 350 434
f 342 434 435
f 342 435 387
f 342 387 428
f 344 433 436
f 344 436 437
f 344 437 438
f 344 438 345
f 345 438 437
f 345 437 439
f 345 439 346
f 346 439 440
f 346 440 347
f 347 440 348
f 348 440 351
f 349 441 442
f 349 442 443
f 349 443 350
f 349 424 444
f 349 444 502
f 349 502 441
f 350 443 445
f 350 445 446
f 350 446 447
f 350 447 448
f 350 448 434
f 351 440 416
f 351 416 352
f 353 422 449
f 353 449 354
f 354 449 450
f 354 450 451
f 354 451 423
f 355 420 419
f 355 419 356
f 356 419 452
f 356 452 357
f 357 452 453
f 357 453 358
f 358 453 454
f 358 454 359
f 359 455 416
f 359 416 456
f 359 456 360
f 359 454 455
f 360 456 361
f 361 456 362
f 362 456 363
f 363 456 457
f 363 457 458
f 363 458 364
f 364 458 459
f 364 459 365
f 365 459 460
f 365 460 366
f 366 460 367
f 367 460 461
f 367 461 462
f 367 462 368
f 368 463 370
f 368 370 369
f 368 462 463
f 370 463 464
f 370 464 465
f 370 465 372
f 370 372 371
f 372 465 466
f 372 466 467
f 372 467 468
f 372 468 373
f 373 468 374
f 374 469 375
f 374 468 470
f 374 470 469
f 375 469 471
f 375 471 377
f 375 377 376
f 377 471 472
f 377 472 379
f 378 473 383
f 378 379 472
f 378 472 474
f 378 474 473
f 380 381 387
f 381 382 428
f 381 428 387
f 382 475 428
f 382 383 475
f 383 473 425
f 383 425 427
f 383 427 475
f 384 386 385
f 385 386 476
f 385 476 477
f 385 477 388
f 386 387 435
f 386 435 434
f 386 434 476
f 388 477 389
f 389 477 478
f 389 478 479
f 390 479 480
f 390 480 391
f 391 480 481
f 391 481 392
f 393 478 394
f 393 481 478
f 394 478 482
f 394 482 397
f 394 397 483
f 395 483 491
f 395 491 400
f 396 401 490
f 396 490 484
f 397 485 486
f 397 486 487
f 397 487 488
f 397 488 489
f 397 484 490
f 397 490 491
f 397 491 483
f 397 482 492
f 397 492 485
f 398 489 488
f 398 488 399
f 400 491 490
f 400 490 401
f 402 493 494
f 402 494 403
f 403 494 407
f 404 494 495
f 404 495 405
f 404 408 494
f 405 495 496
f 407 494 408
f 409 497 410
f 409 496 495
f 409 495 497
f 410 497 498
f 410 498 412
f 412 498 499
f 413 499 498
f 413 498 415
f 413 415 414
f 415 498 500
f 415 500 421
f 416 440 456
f 416 455 501
f 416 501 417
f 417 501 452
f 417 452 418
f 421 500 449
f 421 449 422
f 423 451 502
f 423 502 444
f 423 444 424
f 425 473 503
f 425 503 426
f 426 503 429
f 429 503 504
f 429 504 505
f 429 505 430
f 430 505 506
f 430 506 507
f 430 507 431
f 431 507 508
f 431 508 509
f 431 509 432
f 432 509 510
f 432 510 511
f 432 511 433
f 433 511 512
f 433 512 513
f 433 513 436
f 434 514 477
f 434 477 476
f 434 448 515
f 434 515 516
f 434 516 514
f 436 513 517
f 436 517 518
f 436 518 457
f 436 457 437
f 437 457 439
f 439 457 440
f 440 457 456
f 441 502 446
f 441 446 442
f 442 446 443
f 443 446 445
f 446 502 519
f 446 519 520
f 446 520 447
f 447 521 522
f 447 522 448
f 447 520 521
f 448 522 515
f 449 500 523
f 449 523 524
f 449 524 450
f 450 524 525
f 450 525 526
f 450 526 451
f 451 526 502
f 452 501 453
f 453 501 455
f 453 455 454
f 457 518 459
f 457 459 458
f 459 518 517
f 459 517 460
f 460 517 513
f 460 513 461
f 461 513 512
f 461 512 527
f 461 527 462
f 462 527 528
f 462 528 463
f 463 528 464
f 464 529 530
f 464 530 465
f 464 528 529
f 465 530 466
f 466 531 532
f 466 532 467
f 466 530 531
f 467 532 533
f 467 533 468
f 468 533 534
f 468 534 469
f 468 469 470
f 469 534 535
f 469 535 536
f 469 536 474
f 469 474 472
f 469 472 471
f 473 474 504
f 473 504 503
f 474 536 535
f 474 535 504
f 477 514 537
f 477 537 478
f 478 481 480
f 478 480 479
f 478 537 482
f 482 537 538
f 482 538 492
f 485 521 539
f 485 539 540
f 485 540 486
f 485 492 541
f 485 541 521
f 486 540 487
f 487 540 542
f 487 542 493
f 487 493 488
f 492 538 541
f 493 542 543
f 493 543 544
f 493 544 494
f 494 545 546
f 494 546 497
f 494 497 495
f 494 544 545
f 497 546 547
f 497 547 523
f 497 523 498
f 498 523 500
f 502 526 548
f 502 548 519
f 504 535 549
f 504 549 550
f 504 550 505
f 505 550 506
f 506 549 551
f 506 551 532
f 506 532 507
f 506 550 549
f 507 532 531
f 507 531 508
f 508 531 530
f 508 530 509
f 509 530 529
f 509 529 510
f 510 529 528
f 510 528 511
f 511 528 527
f 511 527 512
f 514 516 552
f 514 552 537
f 515 538 552
f 515 552 516
f 515 522 521
f 515 521 541
f 515 541 538
f 519 548 520
f 520 553 554
f 520 554 539
f 520 539 521
f 520 548 553
f 523 547 524
f 524 547 525
f 525 547 555
f 525 555 556
f 525 556 526
f 526 556 557
f 526 557 548
f 532 551 533
f 533 551 549
f 533 549 558
f 533 558 534
f 534 558 549
f 534 549 535
f 537 552 538
f 539 554 540
f 540 554 543
f 540 543 542
f 543 554 559
f 543 559 560
f 543 560 545
f 543 545 544
f 545 560 556
f 545 556 555
f 545 555 547
f 545 547 546
f 548 557 553
f 553 557 559
f 553 559 554
f 556 560 559
f 556 559 557

