# https://github.com/mikedh/trimesh

o geometry_0
v 0.02577146 0.01124675 0.03285000 0.54509804 0.71372549 0.60000000
v 0.02569181 -0.00847567 0.03450492 0.54509804 0.71372549 0.60000000
v 0.02565995 -0.00847567 0.03285000 0.54509804 0.71372549 0.60000000
v 0.02572367 0.01124675 0.03121130 0.54509804 0.71372549 0.60000000
v 0.02544092 0.01251556 0.03121130 0.54509804 0.71372549 0.60000000
v 0.02546481 0.01254432 0.03285000 0.54509804 0.71372549 0.60000000
v 0.02561216 0.00960402 0.14791573 0.54509804 0.71372549 0.60000000
v 0.02562809 -0.00847567 0.14627703 0.54509804 0.71372549 0.60000000
v 0.02569181 -0.00847567 0.08708925 0.54509804 0.71372549 0.60000000
v 0.02542499 -0.00998417 0.03450492 0.54509804 0.71372549 0.60000000
v 0.02540906 -0.00996180 0.03285000 0.54509804 0.71372549 0.60000000
v 0.02529357 -0.00967416 0.03121130 0.54509804 0.71372549 0.60000000
v 0.02542499 -0.00847567 0.03121130 0.54509804 0.71372549 0.60000000
v 0.02541702 0.01124675 0.02981598 0.54509804 0.71372549 0.60000000
v 0.02532941 0.01234617 0.03001067 0.54509804 0.71372549 0.60000000
v 0.01391581 0.02051511 -0.00331491 0.54509804 0.71372549 0.60000000
v 0.01403528 0.02058542 -0.00167621 0.54509804 0.71372549 0.60000000
v 0.01708581 0.02042882 0.02850177 0.54509804 0.71372549 0.60000000
v 0.01708581 0.02042882 0.02897229 0.54509804 0.71372549 0.60000000
v 0.02534135 0.01060436 0.14791573 0.54509804 0.71372549 0.60000000
v 0.02528162 0.01054364 0.14916503 0.54509804 0.71372549 0.60000000
v 0.02538516 0.00960402 0.14945708 0.54509804 0.71372549 0.60000000
v 0.02562411 -0.00847567 0.14791573 0.54509804 0.71372549 0.60000000
v 0.02542499 -0.00998417 0.14791573 0.54509804 0.71372549 0.60000000
v 0.02433779 -0.01078956 0.03450492 0.54509804 0.71372549 0.60000000
v 0.02433779 -0.01076399 0.03285000 0.54509804 0.71372549 0.60000000
v 0.02433779 -0.01047955 0.03121130 0.54509804 0.71372549 0.60000000
v 0.02430991 -0.00993943 0.02970240 0.54509804 0.71372549 0.60000000
v 0.02517808 -0.00937374 0.03035139 0.54509804 0.71372549 0.60000000
v 0.01366890 0.01203297 -0.00581351 0.54509804 0.71372549 0.60000000
v 0.01367686 0.01860071 -0.00582974 0.54509804 0.71372549 0.60000000
v 0.01367686 0.01882443 -0.00582974 0.54509804 0.71372549 0.60000000
v 0.01386802 0.01940930 -0.00501850 0.54509804 0.71372549 0.60000000
v 0.01433794 0.01946682 -0.00331491 0.54509804 0.71372549 0.60000000
v 0.01376846 0.02040325 -0.00449931 0.54509804 0.71372549 0.60000000
v 0.01282861 0.02097213 -0.00331491 0.54509804 0.71372549 0.60000000
v 0.01282861 0.02116709 -0.00167621 0.54509804 0.71372549 0.60000000
v 0.01282861 0.02122462 -0.00002128 0.54509804 0.71372549 0.60000000
v 0.01118387 0.02170721 -0.00002128 0.54509804 0.71372549 0.60000000
v 0.01447334 0.02076759 0.02957261 0.54509804 0.71372549 0.60000000
v 0.02433779 0.01084086 0.14791573 0.54509804 0.71372549 0.60000000
v 0.02444133 0.01068426 0.14965178 0.54509804 0.71372549 0.60000000
v 0.02396742 0.01058199 0.15057658 0.54509804 0.71372549 0.60000000
v 0.02508648 0.00960402 0.15028454 0.54509804 0.71372549 0.60000000
v 0.02513427 0.00795809 0.15025209 0.54509804 0.71372549 0.60000000
v 0.02513427 -0.00847567 0.15031699 0.54509804 0.71372549 0.60000000
v 0.02538914 -0.00847567 0.14950575 0.54509804 0.71372549 0.60000000
v 0.02533737 -0.00975726 0.14927861 0.54509804 0.71372549 0.60000000
v 0.02433779 -0.01078956 0.14791573 0.54509804 0.71372549 0.60000000
v 0.02269305 -0.01090781 0.03614362 0.54509804 0.71372549 0.60000000
v 0.02269305 -0.01090461 0.03121130 0.54509804 0.71372549 0.60000000
v 0.02269305 -0.01084709 0.02957261 0.54509804 0.71372549 0.60000000
v 0.02374441 -0.00975726 0.02851800 0.54509804 0.71372549 0.60000000
v 0.01229496 0.01169419 -0.00785783 0.54509804 0.71372549 0.60000000
v 0.01243833 0.01289269 -0.00808497 0.54509804 0.71372549 0.60000000
v 0.01243435 0.01782409 -0.00808497 0.54509804 0.71372549 0.60000000
v 0.01235868 0.01946682 -0.00797140 0.54509804 0.71372549 0.60000000
v 0.01321092 0.01940930 -0.00646250 0.54509804 0.71372549 0.60000000
v 0.01354544 0.01992065 -0.00560259 0.54509804 0.71372549 0.60000000
v 0.01218346 0.02042882 -0.00771181 0.54509804 0.71372549 0.60000000
v 0.01247019 0.02055026 -0.00660853 0.54509804 0.71372549 0.60000000
v 0.01118387 0.02108080 -0.00660853 0.54509804 0.71372549 0.60000000
v 0.01118387 0.02138442 -0.00495360 0.54509804 0.71372549 0.60000000
v 0.01118387 0.02154741 -0.00331491 0.54509804 0.71372549 0.60000000
v 0.01118387 0.02166886 -0.00167621 0.54509804 0.71372549 0.60000000
v 0.00953913 0.02169443 0.00491103 0.54509804 0.71372549 0.60000000
v 0.01118387 0.02167205 0.00161741 0.54509804 0.71372549 0.60000000
v 0.00953913 0.02170082 -0.00495360 0.54509804 0.71372549 0.60000000
v 0.00461289 0.02174237 -0.00988592 0.54509804 0.71372549 0.60000000
v 0.00461289 0.02173278 0.00984334 0.54509804 0.71372549 0.60000000
v 0.01282861 0.02089223 0.02957261 0.54509804 0.71372549 0.60000000
v 0.02269305 0.01083447 0.14955442 0.54509804 0.71372549 0.60000000
v 0.02269305 0.01059797 0.15059280 0.54509804 0.71372549 0.60000000
v 0.02269305 0.00960402 0.15091730 0.54509804 0.71372549 0.60000000
v 0.02426212 0.00960402 0.15075505 0.54509804 0.71372549 0.60000000
v 0.02430991 0.00795809 0.15081996 0.54509804 0.71372549 0.60000000
v 0.02430991 -0.00847567 0.15081996 0.54509804 0.71372549 0.60000000
v 0.02406300 -0.00982437 0.15067394 0.54509804 0.71372549 0.60000000
v 0.02450107 -0.01021109 0.14971667 0.54509804 0.71372549 0.60000000
v 0.02269305 -0.01075760 0.14955442 0.54509804 0.71372549 0.60000000
v 0.02269305 -0.01090142 0.14791573 0.54509804 0.71372549 0.60000000
v 0.02269305 -0.01090781 0.11832184 0.54509804 0.71372549 0.60000000
v 0.01118387 -0.01090781 0.03285000 0.54509804 0.71372549 0.60000000
v 0.02104831 -0.01089822 0.02957261 0.54509804 0.71372549 0.60000000
v 0.01940357 -0.01066172 0.02791768 0.54509804 0.71372549 0.60000000
v 0.02269305 -0.01004489 0.02816106 0.54509804 0.71372549 0.60000000
v 0.00746828 0.01172615 -0.01259545 0.54509804 0.71372549 0.60000000
v 0.00924443 0.01161110 -0.01115145 0.54509804 0.71372549 0.60000000
v 0.01083342 0.01160470 -0.00959387 0.54509804 0.71372549 0.60000000
v 0.01188876 0.01289269 -0.00891243 0.54509804 0.71372549 0.60000000
v 0.01188876 0.01782409 -0.00891243 0.54509804 0.71372549 0.60000000
v 0.01179716 0.01946682 -0.00879886 0.54509804 0.71372549 0.60000000
v 0.01071395 0.02048954 -0.00946408 0.54509804 0.71372549 0.60000000
v 0.01123166 0.02063975 -0.00824722 0.54509804 0.71372549 0.60000000
v 0.00953913 0.02122462 -0.00824722 0.54509804 0.71372549 0.60000000
v 0.00953913 0.02161133 -0.00660853 0.54509804 0.71372549 0.60000000
v 0.00789838 0.02168803 0.00818842 0.54509804 0.71372549 0.60000000
v 0.00789838 0.02167845 -0.00824722 0.54509804 0.71372549 0.60000000
v 0.00625364 0.02156659 -0.00988592 0.54509804 0.71372549 0.60000000
v 0.00461289 0.02132050 -0.01154084 0.54509804 0.71372549 0.60000000
v 0.00296815 0.02145792 -0.01154084 0.54509804 0.71372549 0.60000000
v 0.00132341 0.02155061 -0.01154084 0.54509804 0.71372549 0.60000000
v -0.00031734 0.02158576 -0.01154084 0.54509804 0.71372549 0.60000000
v -0.00525156 0.02171999 -0.00988592 0.54509804 0.71372549 0.60000000
v -0.01018179 0.02172639 -0.00331491 0.54509804 0.71372549 0.60000000
v -0.00525156 0.02172958 0.00984334 0.54509804 0.71372549 0.60000000
v -0.01182652 0.02089543 0.03778232 0.54509804 0.71372549 0.60000000
v 0.00789838 0.02089543 0.03121130 0.54509804 0.71372549 0.60000000
v -0.01018179 0.02087306 0.03778232 0.54509804 0.71372549 0.60000000
v 0.02153417 0.01059797 0.14955442 0.54509804 0.71372549 0.60000000
v 0.02178506 0.01049889 0.15046301 0.54509804 0.71372549 0.60000000
v -0.01182652 0.02074202 0.03943724 0.54509804 0.71372549 0.60000000
v -0.01308098 0.02056944 0.03943724 0.54509804 0.71372549 0.60000000
v -0.01288186 0.02046078 0.04045940 0.54509804 0.71372549 0.60000000
v 0.02269305 0.00795809 0.15103088 0.54509804 0.71372549 0.60000000
v 0.02170143 0.00960402 0.15054414 0.54509804 0.71372549 0.60000000
v 0.02269305 -0.00847567 0.15103088 0.54509804 0.71372549 0.60000000
v 0.02269305 -0.00995541 0.15070639 0.54509804 0.71372549 0.60000000
v 0.02104831 -0.01084709 0.14627703 0.54509804 0.71372549 0.60000000
v 0.02172930 -0.00964859 0.15051169 0.54509804 0.71372549 0.60000000
v 0.02139876 -0.00996180 0.14955442 0.54509804 0.71372549 0.60000000
v 0.01940357 -0.01060739 0.14462211 0.54509804 0.71372549 0.60000000
v 0.01775884 -0.01078317 0.14134471 0.54509804 0.71372549 0.60000000
v 0.01447334 -0.01087585 0.13475748 0.54509804 0.71372549 0.60000000
v 0.01282861 -0.01089183 0.13148009 0.54509804 0.71372549 0.60000000
v 0.01611808 -0.01090142 0.13641240 0.54509804 0.71372549 0.60000000
v 0.01282861 -0.01090461 0.12982517 0.54509804 0.71372549 0.60000000
v 0.00625364 -0.01090781 0.11502822 0.54509804 0.71372549 0.60000000
v 0.01118387 -0.01090142 0.03121130 0.54509804 0.71372549 0.60000000
v 0.00132341 -0.01090781 0.04107593 0.54509804 0.71372549 0.60000000
v -0.01182652 -0.01090461 0.04600825 0.54509804 0.71372549 0.60000000
v -0.00525156 -0.01090461 0.04107593 0.54509804 0.71372549 0.60000000
v 0.01282861 -0.01081832 0.02957261 0.54509804 0.71372549 0.60000000
v 0.01611808 -0.01068729 0.02791768 0.54509804 0.71372549 0.60000000
v 0.01775884 -0.01068729 0.02791768 0.54509804 0.71372549 0.60000000
v 0.02119964 -0.01015675 0.02775544 0.54509804 0.71372549 0.60000000
v -0.00031734 0.01071942 -0.01317954 0.54509804 0.71372549 0.60000000
v 0.00132341 0.01075457 -0.01317954 0.54509804 0.71372549 0.60000000
v 0.00296815 0.01089839 -0.01317954 0.54509804 0.71372549 0.60000000
v 0.00625364 0.01144810 -0.01291994 0.54509804 0.71372549 0.60000000
v 0.00420668 0.01185719 -0.01412057 0.54509804 0.71372549 0.60000000
v 0.00625364 0.01289269 -0.01347158 0.54509804 0.71372549 0.60000000
v 0.00766342 0.01289269 -0.01272524 0.54509804 0.71372549 0.60000000
v 0.00848778 0.01289269 -0.01218983 0.54509804 0.71372549 0.60000000
v 0.00951126 0.01289269 -0.01137859 0.54509804 0.71372549 0.60000000
v 0.01033163 0.01289269 -0.01068093 0.54509804 0.71372549 0.60000000
v 0.01106838 0.01289269 -0.00985347 0.54509804 0.71372549 0.60000000
v 0.01106838 0.01782409 -0.00985347 0.54509804 0.71372549 0.60000000
v 0.01097678 0.01946682 -0.00977234 0.54509804 0.71372549 0.60000000
v 0.01023606 0.01946682 -0.01058358 0.54509804 0.71372549 0.60000000
v 0.00912098 0.02048634 -0.01103787 0.54509804 0.71372549 0.60000000
v 0.00961878 0.02069408 -0.00996704 0.54509804 0.71372549 0.60000000
v 0.00789838 0.02120864 -0.00988592 0.54509804 0.71372549 0.60000000
v 0.00625364 0.02102646 -0.01154084 0.54509804 0.71372549 0.60000000
v 0.00625364 0.02053428 -0.01274147 0.54509804 0.71372549 0.60000000
v 0.00393986 0.02033294 -0.01403944 0.54509804 0.71372549 0.60000000
v 0.00296815 0.02041923 -0.01413680 0.54509804 0.71372549 0.60000000
v 0.00132341 0.02096894 -0.01317954 0.54509804 0.71372549 0.60000000
v -0.00031734 0.02102966 -0.01317954 0.54509804 0.71372549 0.60000000
v -0.00196208 0.02152823 -0.01154084 0.54509804 0.71372549 0.60000000
v -0.00360682 0.02142277 -0.01154084 0.54509804 0.71372549 0.60000000
v -0.00525156 0.02124060 -0.01154084 0.54509804 0.71372549 0.60000000
v -0.00689629 0.02144514 -0.00988592 0.54509804 0.71372549 0.60000000
v -0.00853705 0.02152184 -0.00824722 0.54509804 0.71372549 0.60000000
v -0.01018179 0.02168803 -0.00495360 0.54509804 0.71372549 0.60000000
v -0.01182652 0.02143555 -0.00167621 0.54509804 0.71372549 0.60000000
v -0.01182652 0.02146112 -0.00002128 0.54509804 0.71372549 0.60000000
v -0.01018179 0.02172319 0.00325611 0.54509804 0.71372549 0.60000000
v -0.01018179 0.02169762 0.00491103 0.54509804 0.71372549 0.60000000
v -0.01347126 0.02075481 0.03285000 0.54509804 0.71372549 0.60000000
v -0.01347126 0.02071645 0.03450492 0.54509804 0.71372549 0.60000000
v 0.02003280 0.01056920 0.14744521 0.54509804 0.71372549 0.60000000
v 0.02106424 0.00960402 0.14955442 0.54509804 0.71372549 0.60000000
v 0.01857921 0.01042858 0.14544957 0.54509804 0.71372549 0.60000000
v -0.01441509 0.02041284 0.03450492 0.54509804 0.71372549 0.60000000
v -0.01434739 0.02034572 0.03565688 0.54509804 0.71372549 0.60000000
v -0.00615158 0.01050528 0.08819253 0.54509804 0.71372549 0.60000000
v -0.00454667 0.01053724 0.09327087 0.54509804 0.71372549 0.60000000
v -0.00292184 0.01055003 0.09821941 0.54509804 0.71372549 0.60000000
v -0.00125719 0.01053405 0.10307060 0.54509804 0.71372549 0.60000000
v 0.00043533 0.01049250 0.10780822 0.54509804 0.71372549 0.60000000
v 0.00372879 0.01048930 0.11600170 0.54509804 0.71372549 0.60000000
v 0.00531777 0.01053405 0.11942512 0.54509804 0.71372549 0.60000000
v 0.00690676 0.01056281 0.12284853 0.54509804 0.71372549 0.60000000
v 0.00852760 0.01057240 0.12617460 0.54509804 0.71372549 0.60000000
v 0.01016437 0.01057560 0.12948445 0.54509804 0.71372549 0.60000000
v 0.01180114 0.01057879 0.13274561 0.54509804 0.71372549 0.60000000
v 0.01346978 0.01056601 0.13594189 0.54509804 0.71372549 0.60000000
v 0.01515036 0.01054683 0.13915438 0.54509804 0.71372549 0.60000000
v 0.01684288 0.01051168 0.14233443 0.54509804 0.71372549 0.60000000
v 0.02166160 0.00795809 0.15057658 0.54509804 0.71372549 0.60000000
v 0.02092884 0.00795809 0.14955442 0.54509804 0.71372549 0.60000000
v 0.02166160 -0.00847567 0.15057658 0.54509804 0.71372549 0.60000000
v 0.01611808 -0.01084709 0.13805110 0.54509804 0.71372549 0.60000000
v 0.01995713 -0.00980200 0.14754256 0.54509804 0.71372549 0.60000000
v 0.02092884 -0.00847567 0.14955442 0.54509804 0.71372549 0.60000000
v 0.01853541 -0.00944725 0.14553069 0.54509804 0.71372549 0.60000000
v 0.01770308 -0.01016634 0.14296719 0.54509804 0.71372549 0.60000000
v 0.01648446 -0.00998417 0.14134471 0.54509804 0.71372549 0.60000000
v 0.01476406 -0.01004489 0.13805110 0.54509804 0.71372549 0.60000000
v 0.01282861 -0.01049553 0.13311878 0.54509804 0.71372549 0.60000000
v 0.01118387 -0.01051790 0.12982517 0.54509804 0.71372549 0.60000000
v 0.00953913 -0.01088544 0.12489285 0.54509804 0.71372549 0.60000000
v 0.00461289 -0.01090142 0.11338952 0.54509804 0.71372549 0.60000000
v 0.00789838 -0.01090461 0.11996054 0.54509804 0.71372549 0.60000000
v 0.00953913 -0.01090461 0.12325415 0.54509804 0.71372549 0.60000000
v 0.00296815 -0.01090461 0.10845721 0.54509804 0.71372549 0.60000000
v 0.00296815 -0.01090781 0.10681851 0.54509804 0.71372549 0.60000000
v -0.00360682 -0.01088544 0.03943724 0.54509804 0.71372549 0.60000000
v -0.00031734 -0.01090781 0.04271463 0.54509804 0.71372549 0.60000000
v -0.01018179 -0.01090781 0.05257926 0.54509804 0.71372549 0.60000000
v -0.01182652 -0.01090461 0.05094057 0.54509804 0.71372549 0.60000000
v -0.01347126 -0.01043800 0.04764695 0.54509804 0.71372549 0.60000000
v -0.01182652 -0.01086946 0.04436955 0.54509804 0.71372549 0.60000000
v -0.00689629 -0.01085667 0.04107593 0.54509804 0.71372549 0.60000000
v -0.01018179 -0.01076399 0.04271463 0.54509804 0.71372549 0.60000000
v -0.00689629 0.01084406 -0.01154084 0.54509804 0.71372549 0.60000000
v -0.00360682 0.01100386 -0.01317954 0.54509804 0.71372549 0.60000000
v -0.00196208 0.01078334 -0.01317954 0.54509804 0.71372549 0.60000000
v -0.00031734 0.01145449 -0.01442884 0.54509804 0.71372549 0.60000000
v 0.00132341 0.01149284 -0.01439639 0.54509804 0.71372549 0.60000000
v 0.00296815 0.01163986 -0.01426659 0.54509804 0.71372549 0.60000000
v 0.00469652 0.01135222 -0.01330934 0.54509804 0.71372549 0.60000000
v 0.00296815 0.01289269 -0.01450995 0.54509804 0.71372549 0.60000000
v 0.00441377 0.01289269 -0.01418546 0.54509804 0.71372549 0.60000000
v 0.00523414 0.01289269 -0.01392587 0.54509804 0.71372549 0.60000000
v 0.00625364 0.01782409 -0.01347158 0.54509804 0.71372549 0.60000000
v 0.00766342 0.01782409 -0.01272524 0.54509804 0.71372549 0.60000000
v 0.00848778 0.01782409 -0.01218983 0.54509804 0.71372549 0.60000000
v 0.00951126 0.01782409 -0.01137859 0.54509804 0.71372549 0.60000000
v 0.01033163 0.01782409 -0.01068093 0.54509804 0.71372549 0.60000000
v 0.00941568 0.01946682 -0.01128125 0.54509804 0.71372549 0.60000000
v 0.00836830 0.01946682 -0.01210871 0.54509804 0.71372549 0.60000000
v 0.00731296 0.02040644 -0.01249810 0.54509804 0.71372549 0.60000000
v 0.00787448 0.02061738 -0.01155706 0.54509804 0.71372549 0.60000000
v 0.00625364 0.01946682 -0.01329311 0.54509804 0.71372549 0.60000000
v 0.00503502 0.01946682 -0.01382852 0.54509804 0.71372549 0.60000000
v 0.00421464 0.01946682 -0.01412057 0.54509804 0.71372549 0.60000000
v 0.00296815 0.01946682 -0.01441261 0.54509804 0.71372549 0.60000000
v 0.00132341 0.01946682 -0.01463977 0.54509804 0.71372549 0.60000000
v 0.00132341 0.02050872 -0.01423414 0.54509804 0.71372549 0.60000000
v -0.00196208 0.02092739 -0.01317954 0.54509804 0.71372549 0.60000000
v -0.00031734 0.02053109 -0.01428282 0.54509804 0.71372549 0.60000000
v -0.00196208 0.02048954 -0.01421791 0.54509804 0.71372549 0.60000000
v -0.00327230 0.02039366 -0.01410435 0.54509804 0.71372549 0.60000000
v -0.00525156 0.02059820 -0.01296861 0.54509804 0.71372549 0.60000000
v -0.00689629 0.02046078 -0.01259545 0.54509804 0.71372549 0.60000000
v -0.00689629 0.02087945 -0.01154084 0.54509804 0.71372549 0.60000000
v -0.00853705 0.02103286 -0.00988592 0.54509804 0.71372549 0.60000000
v -0.01018179 0.02102327 -0.00824722 0.54509804 0.71372549 0.60000000
v -0.01018179 0.02142277 -0.00660853 0.54509804 0.71372549 0.60000000
v -0.01182652 0.02119266 -0.00495360 0.54509804 0.71372549 0.60000000
v -0.01182652 0.02137163 -0.00331491 0.54509804 0.71372549 0.60000000
v -0.01444297 0.02044160 -0.00002128 0.54509804 0.71372549 0.60000000
v -0.01445492 0.02045119 0.00161741 0.54509804 0.71372549 0.60000000
v -0.01445492 0.02045119 0.03285000 0.54509804 0.71372549 0.60000000
v 0.01988147 0.00960402 0.14768858 0.54509804 0.71372549 0.60000000
v 0.01675527 0.00960402 0.14248045 0.54509804 0.71372549 0.60000000
v 0.01854736 0.00960402 0.14551447 0.54509804 0.71372549 0.60000000
v -0.01467793 0.01946682 0.03450492 0.54509804 0.71372549 0.60000000
v -0.01476156 0.01946682 0.03285000 0.54509804 0.71372549 0.60000000
v -0.01264690 0.01042539 0.05997774 0.54509804 0.71372549 0.60000000
v -0.01105393 0.01047652 0.06841459 0.54509804 0.71372549 0.60000000
v -0.00936141 0.01042858 0.07641338 0.54509804 0.71372549 0.60000000
v -0.00768083 0.01025280 0.08291949 0.54509804 0.71372549 0.60000000
v -0.00622725 0.00960402 0.08841967 0.54509804 0.71372549 0.60000000
v -0.00434755 0.00998434 0.09437415 0.54509804 0.71372549 0.60000000
v -0.00269883 0.00995558 0.09930646 0.54509804 0.71372549 0.60000000
v -0.00135675 0.00960402 0.10334642 0.54509804 0.71372549 0.60000000
v 0.00036763 0.00960402 0.10798669 0.54509804 0.71372549 0.60000000
v 0.00221547 0.01006424 0.11249716 0.54509804 0.71372549 0.60000000
v 0.00366109 0.00960402 0.11616395 0.54509804 0.71372549 0.60000000
v 0.00521423 0.00960402 0.11965226 0.54509804 0.71372549 0.60000000
v 0.00677135 0.00960402 0.12314058 0.54509804 0.71372549 0.60000000
v 0.00716163 0.00960402 0.12396804 0.54509804 0.71372549 0.60000000
v 0.00881035 0.00989805 0.12726166 0.54509804 0.71372549 0.60000000
v 0.01043518 0.01003548 0.13057150 0.54509804 0.71372549 0.60000000
v 0.01209584 0.00991403 0.13384889 0.54509804 0.71372549 0.60000000
v 0.01503088 0.00960402 0.13936530 0.54509804 0.71372549 0.60000000
v 0.02031555 0.00795809 0.14858094 0.54509804 0.71372549 0.60000000
v 0.01678713 -0.00968055 0.14241555 0.54509804 0.71372549 0.60000000
v 0.02031555 -0.00847567 0.14858094 0.54509804 0.71372549 0.60000000
v 0.01671545 -0.00847567 0.14254535 0.54509804 0.71372549 0.60000000
v 0.01602649 -0.00847567 0.14134471 0.54509804 0.71372549 0.60000000
v 0.01982571 -0.00847567 0.14776971 0.54509804 0.71372549 0.60000000
v 0.01900135 -0.00847567 0.14639061 0.54509804 0.71372549 0.60000000
v 0.01508664 -0.00976045 0.13925173 0.54509804 0.71372549 0.60000000
v 0.01339809 -0.00979880 0.13605546 0.54509804 0.71372549 0.60000000
v 0.01117591 -0.00995541 0.13131784 0.54509804 0.71372549 0.60000000
v 0.00810945 -0.01008325 0.12489285 0.54509804 0.71372549 0.60000000
v 0.00953913 -0.01048914 0.12654777 0.54509804 0.71372549 0.60000000
v 0.00789838 -0.01087265 0.12161546 0.54509804 0.71372549 0.60000000
v 0.00296815 -0.01086946 0.11009590 0.54509804 0.71372549 0.60000000
v 0.00132341 -0.01089822 0.10516359 0.54509804 0.71372549 0.60000000
v -0.00031734 -0.01090142 0.10024750 0.54509804 0.71372549 0.60000000
v 0.00132341 -0.01090781 0.10188619 0.54509804 0.71372549 0.60000000
v -0.01018179 -0.01090781 0.05915028 0.54509804 0.71372549 0.60000000
v -0.01182652 -0.01090142 0.05257926 0.54509804 0.71372549 0.60000000
v -0.01018179 -0.01090461 0.06080520 0.54509804 0.71372549 0.60000000
v -0.01439120 -0.00963581 0.04764695 0.54509804 0.71372549 0.60000000
v -0.01437925 -0.00959106 0.04631652 0.54509804 0.71372549 0.60000000
v -0.01363056 -0.01011521 0.04586223 0.54509804 0.71372549 0.60000000
v -0.01182652 -0.01089503 0.05421796 0.54509804 0.71372549 0.60000000
v -0.01182652 -0.01086946 0.05587288 0.54509804 0.71372549 0.60000000
v -0.01182652 -0.01076719 0.05751158 0.54509804 0.71372549 0.60000000
v -0.01303319 -0.01006407 0.05587288 0.54509804 0.71372549 0.60000000
v -0.01324824 -0.01006407 0.04436955 0.54509804 0.71372549 0.60000000
v -0.01290974 -0.00978602 0.04325005 0.54509804 0.71372549 0.60000000
v -0.01181856 0.01150563 -0.00814987 0.54509804 0.71372549 0.60000000
v -0.01020966 0.01137459 -0.00990214 0.54509804 0.71372549 0.60000000
v -0.00853705 0.01070344 -0.00988592 0.54509804 0.71372549 0.60000000
v -0.00848528 0.01145769 -0.01154084 0.54509804 0.71372549 0.60000000
v -0.00689629 0.01158553 -0.01275769 0.54509804 0.71372549 0.60000000
v -0.00519182 0.01142892 -0.01326066 0.54509804 0.71372549 0.60000000
v -0.00360682 0.01174533 -0.01420169 0.54509804 0.71372549 0.60000000
v -0.00196208 0.01152161 -0.01436393 0.54509804 0.71372549 0.60000000
v -0.00031734 0.01946682 -0.01472088 0.54509804 0.71372549 0.60000000
v -0.00360682 0.01289269 -0.01441261 0.54509804 0.71372549 0.60000000
v 0.00296815 0.01782409 -0.01447752 0.54509804 0.71372549 0.60000000
v 0.00441377 0.01782409 -0.01418546 0.54509804 0.71372549 0.60000000
v 0.00523414 0.01782409 -0.01392587 0.54509804 0.71372549 0.60000000
v 0.00754793 0.01946682 -0.01264412 0.54509804 0.71372549 0.60000000
v -0.00196208 0.01946682 -0.01459109 0.54509804 0.71372549 0.60000000
v -0.00436746 0.02020510 -0.01397455 0.54509804 0.71372549 0.60000000
v -0.00776048 0.02031696 -0.01238452 0.54509804 0.71372549 0.60000000
v -0.00840165 0.02050232 -0.01145971 0.54509804 0.71372549 0.60000000
v -0.00954460 0.02040644 -0.01087563 0.54509804 0.71372549 0.60000000
v -0.01013001 0.02055346 -0.00982102 0.54509804 0.71372549 0.60000000
v -0.01151191 0.02052789 -0.00824722 0.54509804 0.71372549 0.60000000
v -0.01198184 0.02071965 -0.00675455 0.54509804 0.71372549 0.60000000
v -0.01114553 0.02039686 -0.00923693 0.54509804 0.71372549 0.60000000
v -0.01289381 0.02047356 -0.00631648 0.54509804 0.71372549 0.60000000
v -0.01315665 0.02058542 -0.00495360 0.54509804 0.71372549 0.60000000
v -0.01433544 0.02033294 -0.00271459 0.54509804 0.71372549 0.60000000
v -0.01439120 0.02039366 -0.00167621 0.54509804 0.71372549 0.60000000
v -0.01473369 0.01946682 -0.00002128 0.54509804 0.71372549 0.60000000
v -0.01476156 0.01946682 0.00161741 0.54509804 0.71372549 0.60000000
v 0.01602649 0.00795809 0.14134471 0.54509804 0.71372549 0.60000000
v 0.01671545 0.00795809 0.14254535 0.54509804 0.71372549 0.60000000
v 0.01900135 0.00795809 0.14639061 0.54509804 0.71372549 0.60000000
v 0.01982571 0.00795809 0.14776971 0.54509804 0.71372549 0.60000000
v -0.01477749 0.01782409 0.03450492 0.54509804 0.71372549 0.60000000
v -0.01443102 0.00960402 0.04764695 0.54509804 0.71372549 0.60000000
v -0.01429562 0.01043178 0.04850686 0.54509804 0.71372549 0.60000000
v -0.01486112 0.01782409 0.03285000 0.54509804 0.71372549 0.60000000
v -0.01490493 0.01782409 0.00161741 0.54509804 0.71372549 0.60000000
v -0.01309691 0.00960402 0.05751158 0.54509804 0.71372549 0.60000000
v -0.01284204 0.00960402 0.05915028 0.54509804 0.71372549 0.60000000
v -0.01267876 0.00960402 0.06013998 0.54509804 0.71372549 0.60000000
v -0.01136058 0.00960402 0.06737621 0.54509804 0.71372549 0.60000000
v -0.01110969 0.00960402 0.06867419 0.54509804 0.71372549 0.60000000
v -0.00939327 0.00960402 0.07654318 0.54509804 0.71372549 0.60000000
v -0.00774057 0.00915658 0.08308174 0.54509804 0.71372549 0.60000000
v -0.00715117 0.00795809 0.08545055 0.54509804 0.71372549 0.60000000
v -0.00669319 0.00795809 0.08708925 0.54509804 0.71372549 0.60000000
v -0.00626309 0.00795809 0.08853325 0.54509804 0.71372549 0.60000000
v -0.00443516 0.00889131 0.09450394 0.54509804 0.71372549 0.60000000
v -0.00460640 0.00950494 0.09375761 0.54509804 0.71372549 0.60000000
v -0.00298954 0.00948577 0.09868992 0.54509804 0.71372549 0.60000000
v -0.00279042 0.00885935 0.09943626 0.54509804 0.71372549 0.60000000
v -0.00110984 0.00795809 0.10427123 0.54509804 0.71372549 0.60000000
v -0.00078727 0.00795809 0.10516359 0.54509804 0.71372549 0.60000000
v -0.00016203 0.00795809 0.10681851 0.54509804 0.71372549 0.60000000
v 0.00213582 0.00896802 0.11259451 0.54509804 0.71372549 0.60000000
v 0.00190484 0.00955288 0.11186440 0.54509804 0.71372549 0.60000000
v 0.00310753 0.00795809 0.11502822 0.54509804 0.71372549 0.60000000
v 0.00362525 0.00795809 0.11622885 0.54509804 0.71372549 0.60000000
v 0.00398765 0.00795809 0.11705631 0.54509804 0.71372549 0.60000000
v 0.00553282 0.00795809 0.12056085 0.54509804 0.71372549 0.60000000
v 0.00599877 0.00795809 0.12161546 0.54509804 0.71372549 0.60000000
v 0.00708597 0.00795809 0.12404916 0.54509804 0.71372549 0.60000000
v 0.00871876 0.00880183 0.12737523 0.54509804 0.71372549 0.60000000
v 0.00843999 0.00945061 0.12664512 0.54509804 0.71372549 0.60000000
v 0.01006879 0.00953371 0.12995496 0.54509804 0.71372549 0.60000000
v 0.01035155 0.00893925 0.13066885 0.54509804 0.71372549 0.60000000
v 0.01170955 0.00946020 0.13323235 0.54509804 0.71372549 0.60000000
v 0.01200425 0.00881780 0.13394624 0.54509804 0.71372549 0.60000000
v 0.01200425 -0.00930662 0.13394624 0.54509804 0.71372549 0.60000000
v 0.01542912 -0.00847567 0.14025766 0.54509804 0.71372549 0.60000000
v 0.01178920 -0.00969334 0.13311878 0.54509804 0.71372549 0.60000000
v 0.01014446 -0.00971571 0.12982517 0.54509804 0.71372549 0.60000000
v 0.00683906 -0.00979241 0.12296211 0.54509804 0.71372549 0.60000000
v 0.00653639 -0.01007046 0.12161546 0.54509804 0.71372549 0.60000000
v 0.00625364 -0.01082472 0.11832184 0.54509804 0.71372549 0.60000000
v 0.00132341 -0.01074801 0.10681851 0.54509804 0.71372549 0.60000000
v -0.00031734 -0.01082472 0.10188619 0.54509804 0.71372549 0.60000000
v 0.00461289 -0.01074162 0.11502822 0.54509804 0.71372549 0.60000000
v -0.00196208 -0.01085028 0.09695388 0.54509804 0.71372549 0.60000000
v -0.00196208 -0.01090142 0.09531518 0.54509804 0.71372549 0.60000000
v -0.00525156 -0.01090781 0.08215693 0.54509804 0.71372549 0.60000000
v -0.00689629 -0.01090781 0.07558592 0.54509804 0.71372549 0.60000000
v -0.01018179 -0.01090142 0.06244389 0.54509804 0.71372549 0.60000000
v -0.01433544 -0.00945683 0.04878268 0.54509804 0.71372549 0.60000000
v -0.01449076 -0.00847567 0.04764695 0.54509804 0.71372549 0.60000000
v -0.01291372 -0.00996180 0.05751158 0.54509804 0.71372549 0.60000000
v -0.01485316 0.01289269 -0.00002128 0.54509804 0.71372549 0.60000000
v -0.01476953 0.01289269 -0.00167621 0.54509804 0.71372549 0.60000000
v -0.01452660 0.01168141 -0.00167621 0.54509804 0.71372549 0.60000000
v -0.01439518 0.01189554 -0.00331491 0.54509804 0.71372549 0.60000000
v -0.01429960 0.01205534 -0.00415859 0.54509804 0.71372549 0.60000000
v -0.01018179 -0.01089503 0.06408259 0.54509804 0.71372549 0.60000000
v -0.01018179 -0.01085348 0.06573751 0.54509804 0.71372549 0.60000000
v -0.01018179 -0.01067770 0.06737621 0.54509804 0.71372549 0.60000000
v -0.01137651 -0.01005129 0.06573751 0.54509804 0.71372549 0.60000000
v -0.01295355 0.01165903 -0.00660853 0.54509804 0.71372549 0.60000000
v -0.01272655 0.01194667 -0.00754956 0.54509804 0.71372549 0.60000000
v -0.01126500 0.01174533 -0.00938295 0.54509804 0.71372549 0.60000000
v -0.00967602 0.01172935 -0.01098920 0.54509804 0.71372549 0.60000000
v -0.00789986 0.01188595 -0.01248187 0.54509804 0.71372549 0.60000000
v -0.00460640 0.01195946 -0.01405567 0.54509804 0.71372549 0.60000000
v -0.00360682 0.01782409 -0.01441261 0.54509804 0.71372549 0.60000000
v -0.00469402 0.01289269 -0.01408812 0.54509804 0.71372549 0.60000000
v -0.00373426 0.01958188 -0.01423414 0.54509804 0.71372549 0.60000000
v -0.00460640 0.01910887 -0.01405567 0.54509804 0.71372549 0.60000000
v -0.00519182 0.01958188 -0.01374740 0.54509804 0.71372549 0.60000000
v -0.00788791 0.01946682 -0.01246565 0.54509804 0.71372549 0.60000000
v -0.00870829 0.01946682 -0.01186534 0.54509804 0.71372549 0.60000000
v -0.00973576 0.01946682 -0.01103787 0.54509804 0.71372549 0.60000000
v -0.00689629 0.01946682 -0.01298484 0.54509804 0.71372549 0.60000000
v -0.01055613 0.01946682 -0.01024286 0.54509804 0.71372549 0.60000000
v -0.01130483 0.01946682 -0.00943162 0.54509804 0.71372549 0.60000000
v -0.01263495 0.02024984 -0.00740353 0.54509804 0.71372549 0.60000000
v -0.01417615 0.01982158 -0.00380165 0.54509804 0.71372549 0.60000000
v -0.01440314 0.01934857 -0.00328246 0.54509804 0.71372549 0.60000000
v -0.01463014 0.01946682 -0.00167621 0.54509804 0.71372549 0.60000000
v -0.01487705 0.01782409 -0.00002128 0.54509804 0.71372549 0.60000000
v 0.01542912 0.00795809 0.14025766 0.54509804 0.71372549 0.60000000
v -0.01449076 0.00795809 0.04764695 0.54509804 0.71372549 0.60000000
v -0.01432748 0.00960402 0.04873400 0.54509804 0.71372549 0.60000000
v -0.01487307 0.01617816 -0.00002128 0.54509804 0.71372549 0.60000000
v -0.01486511 0.01453542 -0.00002128 0.54509804 0.71372549 0.60000000
v -0.01341949 0.00795809 0.05587288 0.54509804 0.71372549 0.60000000
v -0.01318054 0.00795809 0.05751158 0.54509804 0.71372549 0.60000000
v -0.01290974 0.00795809 0.05915028 0.54509804 0.71372549 0.60000000
v -0.01270664 0.00795809 0.06030223 0.54509804 0.71372549 0.60000000
v -0.01174688 0.00795809 0.06573751 0.54509804 0.71372549 0.60000000
v -0.01144023 0.00795809 0.06737621 0.54509804 0.71372549 0.60000000
v -0.01114155 0.00795809 0.06880398 0.54509804 0.71372549 0.60000000
v -0.01096234 0.00795809 0.06963145 0.54509804 0.71372549 0.60000000
v -0.00966407 0.00795809 0.07558592 0.54509804 0.71372549 0.60000000
v -0.00942114 0.00795809 0.07665675 0.54509804 0.71372549 0.60000000
v -0.00921804 0.00795809 0.07746799 0.54509804 0.71372549 0.60000000
v -0.00886361 0.00795809 0.07886331 0.54509804 0.71372549 0.60000000
v -0.00843351 0.00795809 0.08051823 0.54509804 0.71372549 0.60000000
v -0.00715117 -0.00847567 0.08545055 0.54509804 0.71372549 0.60000000
v -0.00669319 -0.00847567 0.08708925 0.54509804 0.71372549 0.60000000
v -0.00418825 0.00795809 0.09534763 0.54509804 0.71372549 0.60000000
v -0.00626309 -0.00847567 0.08853325 0.54509804 0.71372549 0.60000000
v -0.00365859 0.00795809 0.09695388 0.54509804 0.71372549 0.60000000
v -0.00194217 0.00795809 0.10188619 0.54509804 0.71372549 0.60000000
v -0.00110984 -0.00847567 0.10427123 0.54509804 0.71372549 0.60000000
v -0.00078727 -0.00847567 0.10516359 0.54509804 0.71372549 0.60000000
v 0.00245043 0.00795809 0.11343819 0.54509804 0.71372549 0.60000000
v -0.00016203 -0.00847567 0.10681851 0.54509804 0.71372549 0.60000000
v 0.00310753 -0.00847567 0.11502822 0.54509804 0.71372549 0.60000000
v 0.00362525 -0.00847567 0.11622885 0.54509804 0.71372549 0.60000000
v 0.00398765 -0.00847567 0.11705631 0.54509804 0.71372549 0.60000000
v 0.00553282 -0.00847567 0.12056085 0.54509804 0.71372549 0.60000000
v 0.00599877 -0.00847567 0.12161546 0.54509804 0.71372549 0.60000000
v 0.00708597 -0.00847567 0.12404916 0.54509804 0.71372549 0.60000000
v 0.01074979 0.00795809 0.13151254 0.54509804 0.71372549 0.60000000
v 0.01156618 0.00795809 0.13311878 0.54509804 0.71372549 0.60000000
v 0.01245028 0.00795809 0.13477370 0.54509804 0.71372549 0.60000000
v 0.01371669 0.00795809 0.13711007 0.54509804 0.71372549 0.60000000
v 0.01498708 0.00795809 0.13944642 0.54509804 0.71372549 0.60000000
v 0.01245028 -0.00847567 0.13477370 0.54509804 0.71372549 0.60000000
v 0.01156618 -0.00847567 0.13311878 0.54509804 0.71372549 0.60000000
v 0.01074979 -0.00847567 0.13151254 0.54509804 0.71372549 0.60000000
v 0.01035155 -0.00933858 0.13066885 0.54509804 0.71372549 0.60000000
v 0.01498708 -0.00847567 0.13944642 0.54509804 0.71372549 0.60000000
v 0.01371669 -0.00847567 0.13711007 0.54509804 0.71372549 0.60000000
v 0.00851565 -0.00968694 0.12654777 0.54509804 0.71372549 0.60000000
v 0.00871876 -0.00930343 0.12737523 0.54509804 0.71372549 0.60000000
v 0.00526202 -0.00973169 0.11953869 0.54509804 0.71372549 0.60000000
v 0.00345002 -0.00993943 0.11502822 0.54509804 0.71372549 0.60000000
v 0.00499122 -0.01002252 0.11832184 0.54509804 0.71372549 0.60000000
v 0.00164200 -0.01006727 0.11009590 0.54509804 0.71372549 0.60000000
v 0.00016851 -0.00994262 0.10681851 0.54509804 0.71372549 0.60000000
v -0.00153995 -0.01002252 0.10188619 0.54509804 0.71372549 0.60000000
v -0.00322052 -0.01004489 0.09695388 0.54509804 0.71372549 0.60000000
v -0.00360682 -0.01082791 0.09202156 0.54509804 0.71372549 0.60000000
v -0.00525156 -0.01089503 0.08545055 0.54509804 0.71372549 0.60000000
v -0.00525156 -0.01090461 0.08379563 0.54509804 0.71372549 0.60000000
v -0.00689629 -0.01090461 0.07722462 0.54509804 0.71372549 0.60000000
v -0.00853705 -0.01090142 0.07065360 0.54509804 0.71372549 0.60000000
v -0.01424385 -0.00847567 0.04977239 0.54509804 0.71372549 0.60000000
v -0.01435536 -0.00847567 0.04894493 0.54509804 0.71372549 0.60000000
v -0.01277832 -0.00969653 0.05915028 0.54509804 0.71372549 0.60000000
v -0.01268672 -0.00943766 0.06018866 0.54509804 0.71372549 0.60000000
v -0.01341949 -0.00847567 0.05587288 0.54509804 0.71372549 0.60000000
v -0.01122120 -0.00987551 0.06737621 0.54509804 0.71372549 0.60000000
v -0.01475758 0.01782409 -0.00167621 0.54509804 0.71372549 0.60000000
v -0.01430359 0.01872536 -0.00415859 0.54509804 0.71372549 0.60000000
v -0.01430359 0.01862628 -0.00415859 0.54509804 0.71372549 0.60000000
v -0.01277036 0.01289269 -0.00763068 0.54509804 0.71372549 0.60000000
v -0.00689629 -0.01089822 0.07886331 0.54509804 0.71372549 0.60000000
v -0.00853705 -0.01089183 0.07229230 0.54509804 0.71372549 0.60000000
v -0.00853705 -0.01081513 0.07393100 0.54509804 0.71372549 0.60000000
v -0.00969195 -0.01001293 0.07393100 0.54509804 0.71372549 0.60000000
v -0.01221680 0.01289269 -0.00844192 0.54509804 0.71372549 0.60000000
v -0.01139244 0.01289269 -0.00952897 0.54509804 0.71372549 0.60000000
v -0.01065569 0.01289269 -0.01035643 0.54509804 0.71372549 0.60000000
v -0.00983532 0.01289269 -0.01113522 0.54509804 0.71372549 0.60000000
v -0.00881582 0.01289269 -0.01194646 0.54509804 0.71372549 0.60000000
v -0.00799146 0.01289269 -0.01253055 0.54509804 0.71372549 0.60000000
v -0.00689629 0.01289269 -0.01314709 0.54509804 0.71372549 0.60000000
v -0.00551439 0.01289269 -0.01377985 0.54509804 0.71372549 0.60000000
v -0.00469402 0.01782409 -0.01408812 0.54509804 0.71372549 0.60000000
v -0.00551439 0.01782409 -0.01377985 0.54509804 0.71372549 0.60000000
v -0.00881582 0.01782409 -0.01194646 0.54509804 0.71372549 0.60000000
v -0.00689629 0.01782409 -0.01314709 0.54509804 0.71372549 0.60000000
v -0.00799146 0.01782409 -0.01253055 0.54509804 0.71372549 0.60000000
v -0.00983532 0.01782409 -0.01113522 0.54509804 0.71372549 0.60000000
v -0.01065569 0.01782409 -0.01035643 0.54509804 0.71372549 0.60000000
v -0.01139244 0.01782409 -0.00952897 0.54509804 0.71372549 0.60000000
v -0.01221680 0.01782409 -0.00844192 0.54509804 0.71372549 0.60000000
v -0.01273451 0.01915362 -0.00756578 0.54509804 0.71372549 0.60000000
v -0.01222078 0.01960745 -0.00816610 0.54509804 0.71372549 0.60000000
v -0.01304912 0.01960745 -0.00675455 0.54509804 0.71372549 0.60000000
v -0.01391331 0.01934857 -0.00480758 0.54509804 0.71372549 0.60000000
v -0.01435536 0.00795809 0.04894493 0.54509804 0.71372549 0.60000000
v -0.01424385 0.00795809 0.04977239 0.54509804 0.71372549 0.60000000
v -0.01318054 -0.00847567 0.05751158 0.54509804 0.71372549 0.60000000
v -0.01290974 -0.00847567 0.05915028 0.54509804 0.71372549 0.60000000
v -0.01270664 -0.00847567 0.06030223 0.54509804 0.71372549 0.60000000
v -0.01174688 -0.00847567 0.06573751 0.54509804 0.71372549 0.60000000
v -0.01144023 -0.00847567 0.06737621 0.54509804 0.71372549 0.60000000
v -0.01114155 -0.00847567 0.06880398 0.54509804 0.71372549 0.60000000
v -0.01096234 -0.00847567 0.06963145 0.54509804 0.71372549 0.60000000
v -0.00966407 -0.00847567 0.07558592 0.54509804 0.71372549 0.60000000
v -0.00942114 -0.00847567 0.07665675 0.54509804 0.71372549 0.60000000
v -0.00921804 -0.00847567 0.07746799 0.54509804 0.71372549 0.60000000
v -0.00886361 -0.00847567 0.07886331 0.54509804 0.71372549 0.60000000
v -0.00843351 -0.00847567 0.08051823 0.54509804 0.71372549 0.60000000
v -0.00774057 -0.00939291 0.08308174 0.54509804 0.71372549 0.60000000
v -0.00619937 -0.00966138 0.08832233 0.54509804 0.71372549 0.60000000
v -0.00443516 -0.00932580 0.09450394 0.54509804 0.71372549 0.60000000
v -0.00418825 -0.00847567 0.09534763 0.54509804 0.71372549 0.60000000
v -0.00365859 -0.00847567 0.09695388 0.54509804 0.71372549 0.60000000
v -0.00194217 -0.00847567 0.10188619 0.54509804 0.71372549 0.60000000
v -0.00279042 -0.00931621 0.09943626 0.54509804 0.71372549 0.60000000
v 0.00039153 -0.00962942 0.10792179 0.54509804 0.71372549 0.60000000
v 0.00245043 -0.00847567 0.11343819 0.54509804 0.71372549 0.60000000
v 0.00213582 -0.00934497 0.11259451 0.54509804 0.71372549 0.60000000
v 0.00368100 -0.00962303 0.11611527 0.54509804 0.71372549 0.60000000
v 0.00196856 -0.00970292 0.11175083 0.54509804 0.71372549 0.60000000
v -0.00131295 -0.00973488 0.10320039 0.54509804 0.71372549 0.60000000
v -0.00293379 -0.00966138 0.09859258 0.54509804 0.71372549 0.60000000
v -0.00456260 -0.00964859 0.09366026 0.54509804 0.71372549 0.60000000
v -0.00481349 -0.01002572 0.09202156 0.54509804 0.71372549 0.60000000
v -0.00525156 -0.01076719 0.08708925 0.54509804 0.71372549 0.60000000
v -0.00689629 -0.01082472 0.08051823 0.54509804 0.71372549 0.60000000
v -0.01109376 -0.00959106 0.06859306 0.54509804 0.71372549 0.60000000
v -0.00951274 -0.00973169 0.07558592 0.54509804 0.71372549 0.60000000
v -0.01276637 0.01782409 -0.00761446 0.54509804 0.71372549 0.60000000
v -0.00853705 -0.01053708 0.07558592 0.54509804 0.71372549 0.60000000
v -0.00807509 -0.01001933 0.08051823 0.54509804 0.71372549 0.60000000
v -0.00940123 -0.00944725 0.07657563 0.54509804 0.71372549 0.60000000
v -0.00786004 -0.00969653 0.08215693 0.54509804 0.71372549 0.60000000
v -0.00638256 -0.00996499 0.08708925 0.54509804 0.71372549 0.60000000
f 1 2 3
f 1 3 4
f 1 4 5
f 1 5 6
f 1 6 7
f 1 7 8
f 1 8 9
f 1 9 2
f 2 10 11
f 2 11 3
f 2 9 24
f 2 24 10
f 3 11 12
f 3 12 13
f 3 13 4
f 4 13 14
f 4 14 15
f 4 15 5
f 5 15 16
f 5 16 17
f 5 17 18
f 5 18 6
f 6 18 19
f 6 19 20
f 6 20 7
f 7 20 21
f 7 21 22
f 7 22 23
f 7 23 8
f 8 23 24
f 8 24 9
f 10 25 26
f 10 26 11
f 10 24 49
f 10 49 25
f 11 26 27
f 11 27 12
f 12 27 28
f 12 28 29
f 12 29 13
f 13 29 14
f 14 29 30
f 14 30 31
f 14 31 32
f 14 32 33
f 14 33 15
f 15 33 34
f 15 34 35
f 15 35 16
f 16 35 36
f 16 36 37
f 16 37 17
f 17 37 18
f 18 37 38
f 18 38 39
f 18 39 19
f 19 39 40
f 19 40 41
f 19 41 21
f 19 21 20
f 21 42 43
f 21 43 44
f 21 44 22
f 21 41 42
f 22 44 45
f 22 45 46
f 22 46 47
f 22 47 23
f 23 47 48
f 23 48 24
f 24 48 49
f 25 50 51
f 25 51 26
f 25 49 82
f 25 82 50
f 26 51 52
f 26 52 27
f 27 52 28
f 28 52 53
f 28 53 29
f 29 53 54
f 29 54 30
f 30 54 55
f 30 55 31
f 31 55 32
f 32 55 56
f 32 56 57
f 32 57 58
f 32 58 59
f 32 59 33
f 33 59 35
f 33 35 34
f 35 59 60
f 35 60 61
f 35 61 62
f 35 62 63
f 35 63 36
f 36 63 37
f 37 63 64
f 37 64 65
f 37 65 38
f 38 65 39
f 39 66 67
f 39 67 40
f 39 65 68
f 39 68 69
f 39 69 70
f 39 70 66
f 40 67 71
f 40 71 41
f 41 72 42
f 41 71 72
f 42 72 43
f 43 73 74
f 43 74 75
f 43 75 44
f 43 72 73
f 44 75 76
f 44 76 46
f 44 46 45
f 46 76 77
f 46 77 78
f 46 78 48
f 46 48 47
f 48 78 79
f 48 79 49
f 49 79 80
f 49 80 81
f 49 81 82
f 50 83 51
f 50 82 128
f 50 128 208
f 50 208 296
f 50 296 390
f 50 390 391
f 50 391 297
f 50 297 211
f 50 211 210
f 50 210 130
f 50 130 83
f 51 83 84
f 51 84 52
f 52 84 85
f 52 85 86
f 52 86 53
f 53 86 87
f 53 87 88
f 53 88 89
f 53 89 54
f 54 89 90
f 54 90 55
f 55 90 91
f 55 91 56
f 56 91 57
f 57 91 92
f 57 92 60
f 57 60 59
f 57 59 58
f 60 92 93
f 60 93 94
f 60 94 62
f 60 62 61
f 62 94 95
f 62 95 96
f 62 96 63
f 63 96 64
f 64 96 65
f 65 96 68
f 66 70 97
f 66 97 71
f 66 71 67
f 68 96 98
f 68 98 69
f 69 98 99
f 69 99 100
f 69 100 101
f 69 101 102
f 69 102 103
f 69 103 104
f 69 104 105
f 69 105 106
f 69 106 70
f 70 106 107
f 70 107 108
f 70 108 71
f 70 71 97
f 71 108 109
f 71 109 72
f 72 110 111
f 72 111 73
f 72 109 107
f 72 107 112
f 72 112 113
f 72 113 114
f 72 114 110
f 73 111 74
f 74 115 75
f 74 111 116
f 74 116 115
f 75 115 76
f 76 115 117
f 76 117 77
f 77 117 78
f 78 117 118
f 78 118 80
f 78 80 79
f 80 119 81
f 80 118 120
f 80 120 121
f 80 121 122
f 80 122 123
f 80 123 119
f 81 119 124
f 81 124 125
f 81 125 126
f 81 126 127
f 81 127 128
f 81 128 82
f 83 129 84
f 83 130 131
f 83 131 132
f 83 132 129
f 84 133 134
f 84 134 135
f 84 135 85
f 84 129 133
f 85 136 86
f 85 135 137
f 85 137 138
f 85 138 139
f 85 139 140
f 85 140 136
f 86 136 140
f 86 140 87
f 87 140 141
f 87 141 142
f 87 142 143
f 87 143 144
f 87 144 88
f 88 144 145
f 88 145 146
f 88 146 89
f 89 146 147
f 89 147 90
f 90 147 148
f 90 148 91
f 91 148 149
f 91 149 92
f 92 149 93
f 93 149 150
f 93 150 151
f 93 151 152
f 93 152 95
f 93 95 94
f 95 152 153
f 95 153 98
f 95 98 96
f 98 153 99
f 99 153 154
f 99 154 100
f 100 154 155
f 100 155 156
f 100 156 157
f 100 157 158
f 100 158 101
f 101 158 102
f 102 158 159
f 102 159 103
f 103 159 160
f 103 160 104
f 104 160 161
f 104 161 162
f 104 162 163
f 104 163 164
f 104 164 165
f 104 165 105
f 105 165 166
f 105 166 167
f 105 167 168
f 105 168 106
f 106 168 169
f 106 169 107
f 107 170 171
f 107 171 113
f 107 113 112
f 107 109 108
f 107 169 170
f 110 172 111
f 110 114 172
f 111 173 116
f 111 172 174
f 111 174 173
f 113 171 175
f 113 175 176
f 113 176 114
f 114 176 177
f 114 177 178
f 114 178 179
f 114 179 180
f 114 180 181
f 114 181 182
f 114 182 183
f 114 183 184
f 114 184 185
f 114 185 186
f 114 186 187
f 114 187 188
f 114 188 189
f 114 189 190
f 114 190 172
f 115 116 191
f 115 191 193
f 115 193 117
f 116 173 192
f 116 192 191
f 117 193 120
f 117 120 118
f 119 123 194
f 119 194 124
f 120 195 121
f 120 193 196
f 120 196 197
f 120 197 195
f 121 195 198
f 121 198 122
f 122 198 123
f 123 198 199
f 123 199 200
f 123 200 201
f 123 201 194
f 124 194 201
f 124 201 202
f 124 202 125
f 125 202 203
f 125 203 204
f 125 204 205
f 125 205 206
f 125 206 127
f 125 127 126
f 127 206 128
f 128 206 205
f 128 205 204
f 128 204 207
f 128 207 208
f 129 132 209
f 129 209 133
f 130 210 131
f 131 210 211
f 131 211 297
f 131 297 212
f 131 212 213
f 131 213 214
f 131 214 132
f 132 214 209
f 133 209 215
f 133 215 216
f 133 216 217
f 133 217 134
f 134 217 218
f 134 218 219
f 134 219 137
f 134 137 135
f 137 219 220
f 137 220 138
f 138 220 221
f 138 221 139
f 139 221 222
f 139 222 223
f 139 223 140
f 140 223 222
f 140 222 141
f 141 222 224
f 141 224 225
f 141 225 226
f 141 226 142
f 142 226 321
f 142 321 227
f 142 227 228
f 142 228 143
f 143 228 229
f 143 229 144
f 144 229 230
f 144 230 145
f 145 230 231
f 145 231 146
f 146 231 148
f 146 148 147
f 148 231 149
f 149 231 150
f 150 231 230
f 150 230 232
f 150 232 151
f 151 232 233
f 151 233 234
f 151 234 235
f 151 235 153
f 151 153 152
f 153 235 154
f 154 235 234
f 154 234 155
f 155 234 156
f 156 236 237
f 156 237 238
f 156 238 239
f 156 239 240
f 156 240 157
f 156 234 236
f 157 240 241
f 157 241 158
f 158 241 159
f 159 242 160
f 159 241 243
f 159 243 244
f 159 244 242
f 160 242 161
f 161 242 162
f 162 242 245
f 162 245 246
f 162 246 247
f 162 247 248
f 162 248 163
f 163 249 164
f 163 248 249
f 164 249 250
f 164 250 251
f 164 251 165
f 165 251 252
f 165 252 253
f 165 253 166
f 166 253 254
f 166 254 167
f 167 254 255
f 167 255 256
f 167 256 170
f 167 170 168
f 168 170 169
f 170 256 171
f 171 256 175
f 172 190 174
f 173 174 257
f 173 257 192
f 174 190 258
f 174 258 259
f 174 259 257
f 175 260 176
f 175 256 261
f 175 261 260
f 176 260 262
f 176 262 263
f 176 263 264
f 176 264 177
f 177 264 265
f 177 265 266
f 177 266 267
f 177 267 178
f 178 267 179
f 179 267 268
f 179 268 180
f 180 268 269
f 180 269 181
f 181 269 270
f 181 270 271
f 181 271 182
f 182 271 272
f 182 272 273
f 182 273 274
f 182 274 183
f 183 274 184
f 184 274 275
f 184 275 276
f 184 276 277
f 184 277 185
f 185 277 186
f 186 277 187
f 187 277 278
f 187 278 188
f 188 278 189
f 189 278 190
f 190 278 279
f 190 279 258
f 191 192 196
f 191 196 193
f 192 257 280
f 192 280 282
f 192 282 196
f 195 197 281
f 195 281 199
f 195 199 198
f 196 282 197
f 197 283 284
f 197 284 281
f 197 282 285
f 197 285 286
f 197 286 283
f 199 281 287
f 199 287 200
f 200 287 288
f 200 288 201
f 201 288 289
f 201 289 202
f 202 289 290
f 202 290 291
f 202 291 292
f 202 292 203
f 203 292 204
f 204 293 294
f 204 294 295
f 204 295 207
f 204 292 293
f 207 295 208
f 208 295 389
f 208 389 296
f 209 214 215
f 212 298 213
f 212 297 299
f 212 299 392
f 212 392 298
f 213 300 301
f 213 301 302
f 213 302 214
f 213 298 303
f 213 303 304
f 213 304 305
f 213 305 306
f 213 306 300
f 214 302 307
f 214 307 308
f 214 308 309
f 214 309 310
f 214 310 311
f 214 311 216
f 214 216 215
f 216 311 217
f 217 311 312
f 217 312 313
f 217 313 314
f 217 314 218
f 218 314 315
f 218 315 316
f 218 316 219
f 219 316 220
f 220 317 224
f 220 224 221
f 220 316 318
f 220 318 317
f 221 224 222
f 224 317 240
f 224 240 319
f 224 319 320
f 224 320 225
f 225 320 321
f 225 321 226
f 227 236 322
f 227 322 228
f 227 321 236
f 228 322 229
f 229 322 233
f 229 233 232
f 229 232 230
f 233 322 234
f 234 322 236
f 236 321 237
f 237 321 238
f 238 320 239
f 238 321 320
f 239 320 319
f 239 319 240
f 240 317 241
f 241 317 243
f 242 244 245
f 243 317 244
f 244 317 323
f 244 323 245
f 245 323 324
f 245 324 247
f 245 247 246
f 247 325 248
f 247 324 325
f 248 325 326
f 248 326 327
f 248 327 249
f 249 328 250
f 249 327 328
f 250 329 330
f 250 330 251
f 250 328 331
f 250 331 329
f 251 330 252
f 252 330 332
f 252 332 333
f 252 333 334
f 252 334 253
f 253 334 335
f 253 335 254
f 254 336 337
f 254 337 255
f 254 335 336
f 255 337 261
f 255 261 256
f 257 259 280
f 258 338 339
f 258 339 259
f 258 279 338
f 259 339 340
f 259 340 341
f 259 341 280
f 260 261 345
f 260 345 342
f 260 342 343
f 260 343 344
f 260 344 262
f 261 337 346
f 261 346 345
f 262 344 347
f 262 347 348
f 262 348 349
f 262 349 350
f 262 350 263
f 263 350 351
f 263 351 264
f 264 352 353
f 264 353 265
f 264 351 352
f 265 353 266
f 266 353 354
f 266 354 355
f 266 355 356
f 266 356 357
f 266 357 358
f 266 358 267
f 267 358 357
f 267 357 359
f 267 359 268
f 268 359 269
f 269 359 360
f 269 360 361
f 269 361 362
f 269 362 270
f 270 362 363
f 270 363 364
f 270 364 365
f 270 365 271
f 271 365 364
f 271 364 272
f 272 364 366
f 272 366 367
f 272 367 368
f 272 368 369
f 272 369 370
f 272 370 273
f 273 370 274
f 274 370 371
f 274 371 275
f 275 371 372
f 275 372 373
f 275 373 277
f 275 277 276
f 277 373 374
f 277 374 375
f 277 375 376
f 277 376 278
f 278 376 377
f 278 377 279
f 279 377 338
f 280 341 285
f 280 285 282
f 281 284 378
f 281 378 287
f 283 339 338
f 283 338 284
f 283 286 340
f 283 340 339
f 284 379 378
f 284 338 427
f 284 427 379
f 285 341 340
f 285 340 286
f 287 378 288
f 288 378 380
f 288 380 381
f 288 381 289
f 289 381 290
f 290 382 383
f 290 383 291
f 290 381 382
f 291 383 384
f 291 384 292
f 292 384 293
f 293 385 386
f 293 386 294
f 293 384 387
f 293 387 385
f 294 386 388
f 294 388 295
f 295 388 389
f 296 389 390
f 297 391 299
f 298 392 401
f 298 401 303
f 299 391 484
f 299 484 392
f 300 393 394
f 300 394 301
f 300 306 395
f 300 395 393
f 301 307 302
f 301 394 396
f 301 396 397
f 301 397 398
f 301 398 399
f 301 399 400
f 301 400 307
f 303 401 304
f 304 401 402
f 304 402 305
f 305 395 306
f 305 402 403
f 305 403 404
f 305 404 395
f 307 400 405
f 307 405 309
f 307 309 308
f 309 405 406
f 309 406 407
f 309 407 310
f 310 407 408
f 310 408 312
f 310 312 311
f 312 409 313
f 312 408 409
f 313 409 410
f 313 410 314
f 314 410 315
f 315 410 318
f 315 318 316
f 317 318 323
f 318 411 323
f 318 410 412
f 318 412 508
f 318 508 411
f 323 411 413
f 323 413 324
f 324 413 414
f 324 414 415
f 324 415 325
f 325 416 417
f 325 417 418
f 325 418 327
f 325 327 326
f 325 415 419
f 325 419 416
f 327 418 420
f 327 420 331
f 327 331 328
f 329 331 332
f 329 332 330
f 331 420 421
f 331 421 422
f 331 422 332
f 332 334 333
f 332 422 334
f 334 423 424
f 334 424 425
f 334 425 335
f 334 422 423
f 335 425 336
f 336 426 346
f 336 346 337
f 336 425 426
f 338 377 427
f 342 345 343
f 343 428 429
f 343 429 344
f 343 345 428
f 344 429 347
f 345 346 396
f 345 396 394
f 345 394 428
f 346 426 430
f 346 430 431
f 346 431 396
f 347 432 433
f 347 433 348
f 347 429 432
f 348 433 349
f 349 433 434
f 349 434 435
f 349 435 436
f 349 436 350
f 350 436 437
f 350 437 351
f 351 437 438
f 351 438 439
f 351 439 440
f 351 440 352
f 352 440 441
f 352 441 442
f 352 442 443
f 352 443 353
f 353 443 444
f 353 444 354
f 354 445 446
f 354 446 355
f 354 444 534
f 354 534 445
f 355 446 448
f 355 448 356
f 356 447 357
f 356 448 538
f 356 538 447
f 357 447 449
f 357 449 360
f 357 360 359
f 360 449 450
f 360 450 361
f 361 451 452
f 361 452 362
f 361 450 540
f 361 540 451
f 362 452 454
f 362 454 363
f 363 453 364
f 363 454 543
f 363 543 453
f 364 453 366
f 366 455 456
f 366 456 367
f 366 453 543
f 366 543 455
f 367 456 457
f 367 457 368
f 368 457 458
f 368 458 369
f 369 458 459
f 369 459 370
f 370 459 460
f 370 460 371
f 371 460 473
f 371 473 468
f 371 468 461
f 371 461 372
f 372 461 375
f 372 375 374
f 372 374 373
f 375 461 377
f 375 377 376
f 377 461 462
f 377 462 467
f 377 467 378
f 377 378 466
f 377 466 463
f 377 463 464
f 377 464 465
f 377 465 427
f 378 467 468
f 378 468 469
f 378 469 380
f 378 379 470
f 378 470 471
f 378 471 466
f 379 427 465
f 379 465 470
f 380 469 381
f 381 469 472
f 381 472 382
f 382 472 473
f 382 473 474
f 382 474 475
f 382 475 476
f 382 476 383
f 383 476 387
f 383 387 384
f 385 387 477
f 385 477 478
f 385 478 479
f 385 479 386
f 386 479 480
f 386 480 388
f 387 476 475
f 387 475 477
f 388 480 481
f 388 481 482
f 388 482 389
f 389 482 483
f 389 483 390
f 390 483 484
f 390 484 391
f 392 485 401
f 392 484 485
f 393 486 487
f 393 487 394
f 393 395 488
f 393 488 489
f 393 489 490
f 393 490 486
f 394 487 521
f 394 521 428
f 395 404 491
f 395 491 488
f 396 431 397
f 397 431 430
f 397 430 426
f 397 426 492
f 397 492 493
f 397 493 494
f 397 494 400
f 397 400 399
f 397 399 398
f 400 494 495
f 400 495 406
f 400 406 405
f 401 485 496
f 401 496 497
f 401 497 402
f 402 497 498
f 402 498 403
f 403 498 499
f 403 499 404
f 404 499 491
f 406 495 500
f 406 500 501
f 406 501 407
f 407 501 502
f 407 502 408
f 408 502 503
f 408 503 409
f 409 503 504
f 409 504 505
f 409 505 506
f 409 506 410
f 410 506 507
f 410 507 412
f 411 508 414
f 411 414 413
f 412 507 509
f 412 509 508
f 414 509 415
f 414 508 509
f 415 509 419
f 416 510 417
f 416 419 511
f 416 511 512
f 416 512 510
f 417 510 513
f 417 513 418
f 418 513 514
f 418 514 420
f 419 509 511
f 420 514 421
f 421 515 516
f 421 516 517
f 421 517 518
f 421 518 422
f 421 514 515
f 422 518 517
f 422 517 519
f 422 519 520
f 422 520 423
f 423 520 493
f 423 493 424
f 424 492 425
f 424 493 492
f 425 492 426
f 428 521 429
f 429 521 522
f 429 522 432
f 432 490 523
f 432 523 433
f 432 522 486
f 432 486 490
f 433 523 524
f 433 524 434
f 434 524 525
f 434 525 435
f 435 525 526
f 435 526 436
f 436 526 527
f 436 527 437
f 437 527 528
f 437 528 438
f 438 528 529
f 438 529 439
f 439 529 530
f 439 530 440
f 440 530 531
f 440 531 441
f 441 531 532
f 441 532 442
f 442 532 533
f 442 533 443
f 443 533 534
f 443 534 444
f 445 535 446
f 445 534 535
f 446 536 537
f 446 537 448
f 446 535 536
f 447 538 539
f 447 539 449
f 448 537 538
f 449 539 540
f 449 540 450
f 451 540 541
f 451 541 452
f 452 541 542
f 452 542 454
f 454 542 544
f 454 544 543
f 455 543 544
f 455 544 456
f 456 544 545
f 456 545 457
f 457 545 458
f 458 545 459
f 459 545 460
f 460 545 473
f 461 468 467
f 461 467 462
f 463 466 471
f 463 471 464
f 464 471 470
f 464 470 465
f 468 473 469
f 469 473 472
f 473 545 474
f 474 545 475
f 475 545 546
f 475 546 478
f 475 478 477
f 478 546 542
f 478 542 547
f 478 547 479
f 479 547 480
f 480 547 548
f 480 548 549
f 480 549 550
f 480 550 481
f 481 550 551
f 481 551 482
f 482 551 552
f 482 552 496
f 482 496 483
f 483 496 484
f 484 496 485
f 486 522 521
f 486 521 487
f 488 491 489
f 489 525 524
f 489 524 523
f 489 523 490
f 489 491 553
f 489 553 527
f 489 527 526
f 489 526 525
f 491 499 554
f 491 554 553
f 493 520 519
f 493 519 517
f 493 517 555
f 493 555 495
f 493 495 494
f 495 555 516
f 495 516 500
f 496 552 497
f 497 552 498
f 498 556 499
f 498 552 556
f 499 556 557
f 499 557 554
f 500 516 515
f 500 515 501
f 501 515 514
f 501 514 502
f 502 514 513
f 502 513 503
f 503 513 510
f 503 510 504
f 504 510 512
f 504 512 505
f 505 512 511
f 505 511 506
f 506 511 509
f 506 509 507
f 516 555 517
f 527 553 528
f 528 553 558
f 528 558 529
f 529 558 530
f 530 558 531
f 531 558 532
f 532 558 533
f 533 558 535
f 533 535 534
f 535 558 559
f 535 559 536
f 536 559 560
f 536 560 549
f 536 549 537
f 537 549 548
f 537 548 541
f 537 541 539
f 537 539 538
f 539 541 540
f 541 548 547
f 541 547 542
f 542 546 545
f 542 545 544
f 549 560 550
f 550 560 551
f 551 560 557
f 551 557 552
f 552 557 556
f 553 554 558
f 554 557 559
f 554 559 558
f 557 560 559

